# 3ds Max Wavefront OBJ Exporter v0.97b - (c)2007 guruware
# File Created: 26.09.2013 03:05:02

mtllib ExplosiveCrate.mtl

#
# object default
#

v  9.6182 7.0703 1.4521
v  9.6182 4.7363 1.4521
v  -9.5859 7.0703 1.4521
v  -9.5859 4.7363 1.4521
v  9.6182 13.8506 6.7139
v  9.6182 12.6836 4.6924
v  -9.5859 13.8506 6.7139
v  -9.5859 12.6836 4.6924
v  -9.5859 13.8506 -7.0830
v  -9.5859 12.6836 -5.0615
v  9.6182 13.8506 -7.0830
v  9.6182 12.6836 -5.0615
v  9.6182 4.7363 -1.8203
v  9.6182 7.0703 -1.8203
v  -9.5859 4.7363 -1.8203
v  -9.5859 7.0703 -1.8203
v  9.6182 7.5713 -3.6914
v  -9.5859 7.5713 -3.6914
v  9.6182 8.9414 -5.0615
v  -9.5859 8.9414 -5.0615
v  9.6182 16.8096 -5.4463
v  9.6182 15.6426 -3.4248
v  -9.5859 16.8096 -5.4463
v  -9.5859 15.6426 -3.4248
v  -6.9121 13.8506 9.5840
v  -4.8906 12.6836 9.5840
v  -6.9121 13.8506 -9.6211
v  -4.8906 12.6836 -9.6211
v  -1.6494 7.0703 9.5840
v  -1.6494 4.7363 9.5840
v  -1.6494 7.0703 -9.6211
v  -1.6494 4.7363 -9.6211
v  1.6230 4.7363 9.5840
v  1.6230 7.0703 9.5840
v  1.6230 4.7363 -9.6211
v  1.6230 7.0703 -9.6211
v  4.8633 12.6836 9.5840
v  6.8848 13.8506 9.5840
v  4.8633 12.6836 -9.6211
v  6.8848 13.8506 -9.6211
v  3.4941 7.5713 9.5840
v  3.4941 7.5713 -9.6211
v  4.8633 8.9414 9.5840
v  4.8633 8.9414 -9.6211
v  5.2480 16.8096 9.5840
v  3.2266 15.6426 9.5840
v  5.2480 16.8096 -9.6211
v  3.2266 15.6426 -9.6211
v  -3.2539 15.6426 9.5840
v  -5.2754 16.8096 9.5840
v  -3.2539 15.6426 -9.6211
v  -5.2754 16.8096 -9.6211
v  -1.8838 17.0127 9.5840
v  -1.8838 17.0127 -9.6211
v  -0.0127 17.5137 9.5840
v  -0.0127 17.5137 -9.6211
v  8.9990 21.0000 -12.0000
v  8.9990 3.0000 -12.0000
v  8.9990 21.0000 -9.0215
v  8.9990 3.0000 -9.0215
v  -9.0000 3.0000 -12.0000
v  -9.0000 21.0000 -12.0000
v  -9.0215 3.0000 -8.9995
v  -9.0215 21.0000 -8.9995
v  -9.0000 21.0000 12.0000
v  -9.0000 3.0000 12.0000
v  -9.0215 21.0000 9.0000
v  -9.0215 3.0000 9.0000
v  8.9990 3.0000 12.0000
v  8.9990 21.0000 12.0000
v  9.0215 2.9990 8.9990
v  9.0215 21.0000 8.9990
v  -0.0000 2.9990 8.9990
v  -0.0000 3.0000 12.0000
v  -0.0127 19.8486 9.5840
v  -0.0127 19.8486 -9.6211
v  -3.0518 19.0342 -9.6211
v  -3.0518 19.0342 9.5840
v  3.0244 19.0342 -9.6211
v  3.0244 19.0342 9.5840
v  4.6611 5.5498 9.5840
v  6.8848 7.7744 9.5840
v  5.3652 10.8125 9.5840
v  7.6992 10.8125 9.5840
v  1.8574 17.0127 9.5840
v  -12.0000 21.0000 -9.0000
v  -12.0000 3.0000 -9.0000
v  -12.0000 21.0000 9.0000
v  -12.0000 3.0000 9.0000
v  12.0000 3.0000 -9.0000
v  12.0000 21.0000 -9.0000
v  12.0000 3.0000 9.0000
v  12.0000 21.0000 9.0000
v  11.9990 -0.0000 -9.0000
v  8.9990 -0.0000 -12.0000
v  -12.0000 24.0000 -9.0000
v  -9.0000 24.0000 -12.0000
v  -12.0000 0.0000 -9.0000
v  -9.0000 0.0000 -12.0000
v  -9.0000 24.0000 12.0000
v  -12.0000 24.0000 9.0000
v  -12.0000 0.0000 9.0000
v  -9.0000 0.0000 12.0000
v  11.9990 -0.0000 9.0000
v  8.9990 -0.0000 12.0000
v  9.6182 7.7744 -7.0830
v  9.6182 10.8125 -5.5625
v  9.6182 10.8125 -7.8975
v  9.6182 5.5498 -4.8594
v  11.9990 24.0000 9.0000
v  11.9990 24.0000 -9.0000
v  -9.5859 5.5498 4.4902
v  9.6182 5.5498 4.4902
v  -9.5859 7.7744 6.7139
v  9.6182 7.7744 6.7139
v  -9.5859 10.8125 7.5283
v  9.6182 10.8125 7.5283
v  -9.5869 7.5713 3.3232
v  -9.5859 8.9414 4.6924
v  -9.5859 10.8125 5.1943
v  -9.5859 5.5498 -4.8594
v  -9.5859 7.7744 -7.0830
v  -9.5859 10.8125 -7.8975
v  -9.5859 19.0342 -3.2227
v  9.6182 19.0342 -3.2227
v  -9.5859 19.8486 -0.1836
v  9.6182 19.8486 -0.1836
v  6.8848 7.7744 -9.6211
v  7.6992 10.8125 -9.6211
v  4.6611 5.5498 -9.6211
v  -9.5869 19.0342 2.8535
v  9.6182 19.0342 2.8535
v  -9.5859 16.8096 5.0771
v  9.6182 16.8096 5.0771
v  -9.5859 17.5137 -0.1836
v  -9.5869 17.0127 1.6865
v  -9.5859 15.6426 3.0557
v  9.6182 17.0127 -2.0547
v  9.6182 17.5137 -0.1836
v  9.6182 17.0127 1.6865
v  9.6182 15.6426 3.0557
v  -4.6875 5.5498 -9.6211
v  -4.6875 5.5498 9.5840
v  -6.9121 7.7744 -9.6211
v  -6.9121 7.7744 9.5840
v  -7.7266 10.8125 -9.6211
v  -7.7266 10.8125 9.5840
v  -3.5205 7.5713 -9.6211
v  -4.8906 8.9414 -9.6211
v  -5.3916 10.8125 -9.6211
v  -9.0000 0.0000 9.0000
v  -0.0000 0.0000 9.0000
v  -0.0000 -0.0000 12.0000
v  8.9990 -0.0000 9.0000
v  8.9990 -0.0000 -9.0000
v  0.0000 0.0000 -9.0000
v  -9.0000 0.0000 -9.0000
v  0.0000 0.0000 -12.0000
v  -0.0107 3.0000 -9.0107
v  -0.0107 21.0000 -9.0107
v  8.9990 24.0000 9.0000
v  8.9990 24.0000 12.0000
v  0.0000 24.0000 9.0000
v  0.0000 24.0000 12.0000
v  -9.0000 24.0000 9.0000
v  -9.0000 24.0000 -9.0000
v  0.0000 24.0000 -9.0000
v  8.9990 24.0000 -9.0000
v  8.9990 24.0000 -12.0000
v  0.0000 24.0000 -12.0000
v  0.0000 21.0000 8.9990
v  0.0000 21.0000 12.0000
v  1.8574 17.0127 -9.6211
v  5.3652 10.8125 -9.6211
v  9.6182 7.5713 3.3232
v  9.6182 8.9414 4.6924
v  9.6182 10.8125 5.1943
v  -9.5859 10.8125 -5.5625
v  -5.3916 10.8125 9.5840
v  -4.8906 8.9414 9.5840
v  -3.5205 7.5713 9.5840
v  -9.5859 17.0127 -2.0547
v  0.0000 3.0000 -12.0000
v  0.0000 21.0000 -12.0000
# 184 vertices

vn 0.0000 0.0000 -1.0000
vn 0.0000 -0.0000 -1.0000
vn 0.0000 0.8660 -0.5000
vn 0.0000 0.8660 0.5000
vn -0.0000 0.0000 1.0000
vn -0.0000 0.8661 0.4999
vn 0.0000 0.8661 0.4999
vn 0.0000 0.9660 0.2586
vn -0.0000 0.4999 0.8661
vn -0.0000 -0.8660 -0.5000
vn 0.0000 -0.8660 -0.5000
vn 0.5000 0.8660 0.0000
vn 1.0000 -0.0000 0.0000
vn -1.0000 0.0000 -0.0000
vn -0.5000 0.8660 -0.0000
vn -0.5001 0.8660 -0.0000
vn -0.2586 0.9660 -0.0000
vn -0.8660 0.5000 -0.0000
vn 0.5000 -0.8660 0.0000
vn -0.5000 -0.8660 -0.0000
vn 0.4999 -0.8661 0.0000
vn -0.0001 -1.0000 -0.0000
vn 0.7071 -0.7071 0.0000
vn 1.0000 -0.0000 0.0072
vn 1.0000 -0.0000 -0.0072
vn -1.0000 0.0000 -0.0075
vn 0.0000 1.0000 -0.0003
vn 0.0001 1.0000 -0.0003
vn 0.0000 1.0000 -0.0001
vn 0.0000 1.0000 -0.0000
vn 0.0001 1.0000 0.0000
vn 0.0001 1.0000 -0.0000
vn -0.7073 0.7070 -0.0000
vn 0.7073 0.7070 0.0000
vn 0.5002 0.8659 0.0000
vn -0.0002 0.0000 1.0000
vn -0.0000 -1.0000 -0.0000
vn -0.0000 1.0000 -0.0000
vn -0.0072 0.0000 1.0000
vn -0.0003 1.0000 0.0001
vn -0.0003 1.0000 0.0000
vn -0.0000 1.0000 0.0000
vn 0.0000 1.0000 0.0000
vn 0.0003 -0.0000 -1.0000
vn 0.7070 -0.0001 -0.7072
vn 0.7070 0.0000 -0.7072
vn 0.7070 0.0001 -0.7072
vn 0.7071 -0.0002 -0.7071
vn -0.7071 0.0000 -0.7071
vn -0.7071 -0.0000 -0.7071
vn -0.7071 0.0000 0.7071
vn 0.7071 -0.0002 0.7071
vn 0.7070 -0.0001 0.7072
vn 0.7070 -0.0000 0.7072
vn 1.0000 -0.0003 0.0000
vn 0.7070 0.0001 0.7072
vn 0.7070 0.0000 0.7072
vn 1.0000 -0.0000 -0.0012
vn 1.0000 -0.0000 -0.0000
vn 1.0000 0.0000 -0.0000
vn 1.0000 0.0003 0.0000
vn -0.0000 -0.9660 0.2586
vn -0.0000 -0.8660 0.5000
vn -0.0000 -0.5000 0.8660
vn -0.0000 -0.0000 1.0000
vn -0.0000 0.2589 0.9659
vn -1.0000 0.0000 -0.0005
vn -1.0000 -0.0002 -0.0002
vn -1.0000 -0.0001 0.0003
vn -1.0000 -0.0002 0.0002
vn -1.0000 -0.0000 0.0001
vn -1.0000 -0.0000 -0.0000
vn -0.0000 -0.9660 -0.2586
vn 0.0000 -0.5000 -0.8660
vn 0.0000 0.2589 -0.9659
vn 0.0000 0.7070 -0.7073
vn 0.0000 0.8660 -0.5001
vn 0.0000 1.0000 0.0001
vn 0.8660 -0.5000 0.0000
vn 0.9659 0.2589 0.0000
vn 0.2586 -0.9660 0.0000
vn 0.0000 0.8659 0.5002
vn -0.0000 0.7070 0.7073
vn -1.0000 0.0000 -0.0002
vn -1.0000 -0.0000 -0.0003
vn -1.0000 -0.0001 0.0000
vn -1.0000 -0.0003 0.0003
vn -1.0000 -0.0003 0.0002
vn 1.0000 0.0000 0.0000
vn -0.2586 -0.9660 -0.0000
vn -0.2586 -0.9660 0.0000
vn -0.4999 -0.8661 -0.0000
vn -0.4999 -0.8661 0.0000
vn -0.8660 -0.5001 -0.0000
vn -0.9659 0.2589 -0.0000
vn -0.0000 -1.0000 0.0000
vn -0.0012 0.0000 -1.0000
vn 0.0000 -0.8660 -0.5001
vn -0.0000 -1.0000 -0.0001
vn 0.0000 -0.7069 -0.7074
vn 0.0001 -0.0000 1.0000
vn -0.7074 -0.7069 -0.0000
vn -0.5001 -0.8660 -0.0000
vn -0.9658 -0.2591 -0.0000
vn -0.0000 0.0000 -1.0000
vn -0.0000 -0.0000 -1.0000
vn 0.7071 -0.0000 -0.7071
vn 0.7071 -0.0000 0.7071
vn 0.0000 -0.2591 -0.9658
vn 0.0000 0.5000 -0.8660
vn 0.0000 0.9660 -0.2586
vn -1.0000 0.0000 0.0000
vn -1.0000 -0.0000 0.0000
vn -0.0000 -0.2586 0.9660
vn 0.9660 -0.2586 0.0000
vn 0.8661 0.4999 0.0000
vn 0.4999 0.8661 0.0000
vn 0.2586 0.9660 0.0000
vn 0.0000 0.0000 1.0000
vn 0.0000 -0.0000 1.0000
vn -0.0000 -0.7071 0.7071
vn -0.0000 -0.8661 0.4999
# 122 vertex normals

vt 0.0186 0.6450 0.0000
vt 0.0659 0.6292 0.0000
vt 0.1736 0.6685 0.0000
vt 0.2029 0.7087 0.0000
vt 0.0784 0.6633 0.0000
vt 0.1101 0.6865 0.0000
vt 0.2339 0.9028 0.0000
vt 0.9773 0.9028 0.0000
vt 0.2339 0.9851 0.0000
vt 0.9773 0.9851 0.0000
vt 0.9773 0.7710 0.0000
vt 0.2339 0.7710 0.0000
vt 0.9773 0.6934 0.0000
vt 0.2339 0.6934 0.0000
vt 0.2339 0.9858 0.0000
vt 0.9773 0.9858 0.0000
vt 0.9792 0.0874 0.0000
vt 0.9792 0.1545 0.0000
vt 0.7263 0.1545 0.0000
vt 0.7263 0.0874 0.0000
vt 0.4590 0.1545 0.0000
vt 0.4590 0.0874 0.0000
vt 0.0479 0.7004 0.0000
vt 0.0981 0.7332 0.0000
vt 0.1538 0.7327 0.0000
vt 0.1494 0.6860 0.0000
vt 0.9792 0.5090 0.0000
vt 0.9792 0.5679 0.0000
vt 0.4590 0.5090 0.0000
vt 0.4590 0.5679 0.0000
vt 0.9773 0.6941 0.0000
vt 0.2339 0.6941 0.0000
vt 0.4590 0.1548 0.0000
vt 0.9792 0.1548 0.0000
vt 0.4590 0.5093 0.0000
vt 0.9792 0.5093 0.0000
vt 0.0566 0.7715 0.0000
vt 0.2334 0.7715 0.0000
vt 0.0566 0.9036 0.0000
vt 0.2334 0.9036 0.0000
vt 0.9792 0.6445 0.0000
vt 0.4590 0.6445 0.0000
vt 0.4590 0.0190 0.0000
vt 0.9792 0.0190 0.0000
vt 0.4590 0.0193 0.0000
vt 0.9792 0.0193 0.0000
vt 0.4590 0.6448 0.0000
vt 0.9792 0.6448 0.0000
vt 0.0239 0.5654 0.0000
vt 0.1223 0.5630 0.0000
vt 0.1294 0.6436 0.0000
vt 0.3970 0.5674 0.0000
vt 0.3970 0.6458 0.0000
vt 0.1177 0.1013 0.0000
vt 0.0269 0.0962 0.0000
vt 0.1233 0.0181 0.0000
vt 0.3970 0.0984 0.0000
vt 0.1235 0.0181 0.0000
vt 0.3970 0.0203 0.0000
vt 0.7263 0.5090 0.0000
vt 0.0244 0.5654 0.0000
vt 0.1228 0.5630 0.0000
vt 0.1299 0.6436 0.0000
vt 0.3975 0.5674 0.0000
vt 0.3975 0.6458 0.0000
vt 0.1182 0.1013 0.0000
vt 0.0273 0.0962 0.0000
vt 0.1238 0.0181 0.0000
vt 0.3975 0.0984 0.0000
vt 0.1240 0.0181 0.0000
vt 0.3975 0.0203 0.0000
vt 0.7263 0.0190 0.0000
vt 0.7263 0.5679 0.0000
vt 0.7263 0.6445 0.0000
# 74 texture coords

g default
usemtl Material__29
s 1
f 1/1/1 2/2/1 3/1/2 
f 3/1/2 2/2/1 4/2/2 
f 5/3/3 6/4/3 7/3/3 
f 7/3/3 6/4/3 8/4/3 
f 9/1/4 10/2/4 11/1/4 
f 11/1/4 10/2/4 12/2/4 
f 13/3/5 14/4/5 15/3/5 
f 15/3/5 14/4/5 16/4/5 
s 2
f 17/5/6 18/5/7 14/2/8 
f 14/2/8 18/5/7 16/2/8 
f 19/5/9 20/5/9 17/6/6 
f 17/6/6 20/5/9 18/6/7 
s 1
f 21/1/10 22/2/10 23/1/11 
f 23/1/11 22/2/10 24/2/11 
f 25/1/12 26/2/12 27/1/12 
f 27/1/12 26/2/12 28/2/12 
f 29/3/13 30/4/13 31/3/13 
f 31/3/13 30/4/13 32/4/13 
f 33/1/14 34/2/14 35/1/14 
f 35/1/14 34/2/14 36/2/14 
f 37/3/15 38/4/15 39/3/15 
f 39/3/15 38/4/15 40/4/15 
s 2
f 41/5/16 42/5/16 34/2/17 
f 34/2/17 42/5/16 36/2/17 
f 43/5/18 44/5/18 41/6/16 
f 41/6/16 44/5/18 42/6/16 
s 1
f 45/1/19 46/2/19 47/1/19 
f 47/1/19 46/2/19 48/2/19 
f 49/3/20 50/4/20 51/3/20 
f 51/3/20 50/4/20 52/4/20 
s 2
f 53/5/21 54/5/21 55/2/22 
f 55/2/22 54/5/21 56/2/22 
f 49/5/23 51/5/23 53/6/21 
f 53/6/21 51/5/23 54/6/21 
s 1
f 57/7/14 58/8/14 59/9/14 
f 59/9/14 58/8/14 60/10/14 
f 61/11/24 62/12/24 63/13/24 
f 63/13/24 62/12/24 64/14/24 
f 65/7/25 66/8/25 67/15/25 
f 67/15/25 66/8/25 68/16/25 
f 69/11/26 70/12/26 71/13/26 
f 71/13/26 70/12/26 72/14/26 
s 2
f 69/17/27 71/18/27 73/19/28 
f 69/17/27 73/19/28 74/20/27 
f 74/20/27 73/19/28 68/21/29 
f 74/20/27 68/21/29 66/22/30 
f 75/1/31 76/1/32 77/23/16 
f 75/1/31 77/23/16 78/23/16 
f 78/23/16 77/23/16 52/24/33 
f 78/23/16 52/24/33 50/24/33 
f 45/24/34 47/24/34 79/25/35 
f 45/24/34 79/25/35 80/25/35 
f 80/25/35 79/25/35 76/4/32 
f 80/25/35 76/4/32 75/4/31 
s 4
f 34/6/5 33/24/5 41/26/5 
f 41/26/5 33/24/5 81/25/5 
f 41/26/5 81/25/5 43/3/5 
f 43/3/5 81/25/5 82/4/5 
f 43/2/5 82/1/5 83/5/5 
f 83/5/5 82/1/5 84/23/5 
f 83/5/5 84/23/5 37/6/5 
f 37/6/5 84/23/5 38/24/5 
f 46/6/5 45/24/5 85/26/5 
f 85/26/5 45/24/5 80/25/5 
f 85/26/5 80/25/5 55/3/5 
f 55/3/5 80/25/5 75/4/5 
f 55/2/5 75/1/5 53/5/5 
f 53/5/5 75/1/5 78/23/5 
f 53/5/5 78/23/5 49/6/5 
f 49/6/5 78/23/5 50/24/5 
s 2
f 86/7/36 87/8/36 64/9/36 
f 64/9/36 87/8/36 63/10/36 
s 4
f 67/27/37 88/28/37 64/29/37 
f 64/29/37 88/28/37 86/30/37 
s 8
f 89/11/1 88/12/1 68/31/1 
f 68/31/1 88/12/1 67/32/1 
s 4
f 89/17/38 68/18/38 87/22/38 
f 87/22/38 68/18/38 63/21/38 
s 2
f 90/11/39 91/12/39 60/13/39 
f 60/13/39 91/12/39 59/14/39 
s 4
f 71/33/40 92/22/41 60/34/42 
f 60/34/42 92/22/41 90/17/43 
s 8
f 93/7/44 92/8/44 72/9/44 
f 72/9/44 92/8/44 71/10/44 
s 4
f 93/30/37 72/35/37 91/28/37 
f 91/28/37 72/35/37 59/36/37 
s 8
f 90/11/45 58/8/46 91/12/47 
f 91/12/47 58/8/46 57/7/46 
f 94/37/48 95/38/45 90/39/45 
f 90/39/45 95/38/45 58/40/46 
f 96/40/49 97/39/50 86/38/50 
f 86/38/50 97/39/50 62/37/50 
f 86/7/50 62/12/50 87/8/49 
f 87/8/49 62/12/50 61/11/49 
f 87/40/49 61/39/49 98/38/50 
f 98/38/50 61/39/49 99/37/50 
s 16
f 100/40/51 101/39/51 65/38/51 
f 65/38/51 101/39/51 88/37/51 
s 1
f 88/28/14 101/41/14 86/30/14 
f 86/30/14 101/41/14 96/42/14 
s 16
f 88/12/51 89/11/51 65/7/51 
f 65/7/51 89/11/51 66/8/51 
f 68/18/14 67/27/14 63/21/14 
f 63/21/14 67/27/14 64/29/14 
f 89/39/51 102/37/51 66/40/51 
f 66/40/51 102/37/51 103/38/51 
s 1
f 98/43/14 102/44/14 87/22/14 
f 87/22/14 102/44/14 89/17/14 
s 16
f 104/38/52 92/40/53 105/37/53 
f 105/37/53 92/40/53 69/39/54 
s 1
f 92/22/55 104/45/55 90/17/55 
f 90/17/55 104/45/55 94/46/55 
s 16
f 92/8/53 93/7/56 69/11/54 
f 69/11/54 93/7/56 70/12/57 
f 72/35/58 71/33/58 59/36/58 
f 59/36/58 71/33/58 60/34/58 
s 4
f 19/2/13 106/1/59 107/5/59 
f 107/5/59 106/1/59 108/23/59 
f 107/5/59 108/23/59 12/6/60 
f 12/6/60 108/23/59 11/24/60 
f 14/6/13 13/24/13 17/26/13 
f 17/26/13 13/24/13 109/25/13 
f 17/26/13 109/25/13 19/3/13 
f 19/3/13 109/25/13 106/4/59 
s 1
f 110/47/61 93/30/61 111/48/61 
f 111/48/61 93/30/61 91/28/61 
s 2
f 4/4/62 2/4/62 112/25/63 
f 112/25/63 2/4/62 113/25/63 
f 112/25/63 113/25/63 114/24/64 
f 114/24/64 113/25/63 115/24/64 
f 114/24/64 115/24/64 116/23/65 
f 116/23/65 115/24/64 117/23/5 
f 116/23/65 117/23/5 7/1/66 
f 7/1/66 117/23/5 5/1/66 
s 4
f 3/3/67 4/4/68 118/26/69 
f 118/26/69 4/4/68 112/25/70 
f 118/26/69 112/25/70 119/6/71 
f 119/6/71 112/25/70 114/24/14 
f 119/6/71 114/24/14 120/5/72 
f 120/5/72 114/24/14 116/23/72 
f 120/5/72 116/23/72 8/2/72 
f 8/2/72 116/23/72 7/1/14 
s 2
f 13/24/73 15/24/73 121/25/10 
f 13/24/73 121/25/10 109/25/10 
f 109/25/10 121/25/10 122/4/74 
f 109/25/10 122/4/74 106/4/74 
f 106/1/74 122/1/74 123/23/1 
f 106/1/74 123/23/1 108/23/1 
f 108/23/1 123/23/1 9/24/75 
f 108/23/1 9/24/75 11/24/75 
f 21/24/76 23/24/76 124/25/77 
f 21/24/76 124/25/77 125/25/77 
f 125/25/77 124/25/77 126/4/78 
f 125/25/77 126/4/78 127/4/78 
f 82/1/79 128/1/79 129/23/13 
f 82/1/79 129/23/13 84/23/13 
f 84/23/13 129/23/13 40/24/80 
f 84/23/13 40/24/80 38/24/80 
f 33/24/81 35/24/81 130/25/19 
f 33/24/81 130/25/19 81/25/19 
f 81/25/19 130/25/19 128/4/79 
f 81/25/19 128/4/79 82/4/79 
f 127/1/78 126/1/78 131/23/82 
f 127/1/78 131/23/82 132/23/82 
f 132/23/82 131/23/82 133/24/83 
f 132/23/82 133/24/83 134/24/83 
s 4
f 126/1/84 135/2/85 136/5/86 
f 126/1/84 136/5/86 131/23/86 
f 131/23/86 136/5/86 137/6/87 
f 131/23/86 137/6/87 133/24/88 
f 22/6/60 21/24/60 138/26/60 
f 138/26/60 21/24/60 125/25/60 
f 138/26/60 125/25/60 139/3/89 
f 139/3/89 125/25/60 127/4/89 
f 139/2/89 127/1/89 140/5/89 
f 140/5/89 127/1/89 132/23/89 
f 140/5/89 132/23/89 141/6/89 
f 141/6/89 132/23/89 134/24/89 
s 2
f 32/4/90 30/4/91 142/25/92 
f 142/25/92 30/4/91 143/25/93 
f 142/25/92 143/25/93 144/24/94 
f 144/24/94 143/25/93 145/24/94 
f 144/24/94 145/24/94 146/23/14 
f 146/23/14 145/24/94 147/23/14 
f 146/23/14 147/23/14 27/1/95 
f 27/1/95 147/23/14 25/1/95 
s 4
f 31/3/1 32/4/1 148/26/1 
f 148/26/1 32/4/1 142/25/1 
f 148/26/1 142/25/1 149/6/1 
f 149/6/1 142/25/1 144/24/1 
f 149/6/1 144/24/1 150/5/1 
f 150/5/1 144/24/1 146/23/1 
f 150/5/1 146/23/1 28/2/1 
f 28/2/1 146/23/1 27/1/1 
s 2
f 102/49/96 151/50/96 103/51/96 
f 103/51/96 151/50/96 152/52/96 
f 103/51/96 152/52/96 153/53/37 
f 153/53/37 152/52/96 154/50/37 
f 153/53/37 154/50/37 105/51/37 
f 105/51/37 154/50/37 104/49/37 
f 104/49/37 154/50/37 155/54/96 
f 104/49/37 155/54/96 94/55/96 
f 94/55/96 155/54/96 95/56/96 
f 95/56/96 155/54/96 156/57/37 
f 156/57/37 155/54/96 154/50/37 
f 156/57/37 154/50/37 152/52/96 
f 156/57/37 152/52/96 157/54/37 
f 157/54/37 152/52/96 151/50/96 
f 157/54/37 151/50/96 102/49/96 
f 157/54/37 102/49/96 98/55/37 
f 157/54/37 98/55/37 99/58/37 
f 157/54/37 99/58/37 156/57/37 
f 156/57/37 99/58/37 158/59/37 
f 156/57/37 158/59/37 95/56/96 
s 8
f 59/29/97 60/21/97 159/19/97 
f 59/29/97 159/19/97 160/60/97 
f 160/60/97 159/19/97 63/18/97 
f 160/60/97 63/18/97 64/27/97 
s 2
f 110/61/43 161/62/43 162/63/43 
f 162/63/43 161/62/43 163/64/43 
f 162/63/43 163/64/43 164/65/43 
f 164/65/43 163/64/43 165/62/43 
f 164/65/43 165/62/43 100/63/43 
f 100/63/43 165/62/43 101/61/43 
f 101/61/43 165/62/43 166/66/43 
f 101/61/43 166/66/43 96/67/43 
f 96/67/43 166/66/43 97/68/43 
f 97/68/43 166/66/43 167/69/43 
f 167/69/43 166/66/43 165/62/43 
f 167/69/43 165/62/43 163/64/43 
f 167/69/43 163/64/43 168/66/43 
f 168/66/43 163/64/43 161/62/43 
f 168/66/43 161/62/43 110/61/43 
f 168/66/43 110/61/43 111/67/43 
f 168/66/43 111/67/43 169/70/43 
f 168/66/43 169/70/43 167/69/43 
f 167/69/43 169/70/43 170/71/43 
f 167/69/43 170/71/43 97/68/43 
s 1
f 141/3/63 134/4/63 137/3/63 
f 137/3/63 134/4/63 133/4/63 
s 2
f 140/5/98 136/5/98 139/2/99 
f 139/2/99 136/5/98 135/2/99 
f 141/5/100 137/5/100 140/6/98 
f 140/6/98 137/5/100 136/6/98 
s 4
f 105/44/5 69/17/5 74/20/5 
f 105/44/5 74/20/5 153/72/5 
f 153/72/5 74/20/5 66/22/5 
f 153/72/5 66/22/5 103/43/5 
s 32
f 71/18/5 72/27/5 171/60/101 
f 71/18/5 171/60/101 73/19/101 
f 73/19/101 171/60/101 67/29/101 
f 73/19/101 67/29/101 68/21/101 
s 2
f 72/27/37 70/28/37 172/73/37 
f 72/27/37 172/73/37 171/60/37 
f 171/60/37 172/73/37 65/30/37 
f 171/60/37 65/30/37 67/29/37 
s 4
f 70/28/5 162/41/5 164/74/5 
f 70/28/5 164/74/5 172/73/5 
f 172/73/5 164/74/5 100/42/5 
f 172/73/5 100/42/5 65/30/5 
s 2
f 48/6/102 46/6/102 85/26/103 
f 48/6/102 85/26/103 173/26/103 
f 173/26/103 85/26/103 55/3/22 
f 173/26/103 55/3/22 56/3/22 
s 4
f 76/1/1 56/2/1 54/5/1 
f 76/1/1 54/5/1 77/23/1 
f 77/23/1 54/5/1 51/6/1 
f 77/23/1 51/6/1 52/24/1 
f 47/24/1 48/6/1 173/26/1 
f 47/24/1 173/26/1 79/25/1 
f 79/25/1 173/26/1 56/3/1 
f 79/25/1 56/3/1 76/4/1 
s 2
f 44/6/18 43/6/18 83/26/14 
f 44/6/18 83/26/14 174/26/14 
f 174/26/14 83/26/14 37/3/104 
f 174/26/14 37/3/104 39/3/104 
s 4
f 128/1/105 44/2/1 174/5/106 
f 128/1/105 174/5/106 129/23/106 
f 129/23/106 174/5/106 39/6/106 
f 129/23/106 39/6/106 40/24/1 
s 8
f 91/37/47 57/38/46 111/39/47 
f 111/39/47 57/38/46 169/40/107 
s 16
f 93/38/56 110/40/56 70/37/57 
f 70/37/57 110/40/56 162/39/108 
s 4
f 2/4/59 1/3/59 175/26/13 
f 2/4/59 175/26/13 113/25/13 
f 113/25/13 175/26/13 176/6/13 
f 113/25/13 176/6/13 115/24/13 
f 115/24/13 176/6/13 177/5/89 
f 115/24/13 177/5/89 117/23/89 
f 117/23/89 177/5/89 6/2/89 
f 117/23/89 6/2/89 5/1/13 
s 2
f 8/2/109 6/2/109 177/5/2 
f 8/2/109 177/5/2 120/5/2 
f 120/5/2 177/5/2 176/6/110 
f 120/5/2 176/6/110 119/6/110 
f 119/6/110 176/6/110 175/26/77 
f 119/6/110 175/26/77 118/26/77 
f 118/26/77 175/26/77 1/3/111 
f 118/26/77 1/3/111 3/3/111 
s 4
f 15/24/72 16/6/14 18/26/72 
f 15/24/72 18/26/72 121/25/72 
f 121/25/72 18/26/72 20/3/14 
f 121/25/72 20/3/14 122/4/112 
f 122/1/112 20/2/14 178/5/113 
f 122/1/112 178/5/113 123/23/113 
f 123/23/113 178/5/113 10/6/113 
f 123/23/113 10/6/113 9/24/14 
s 2
f 20/6/9 19/6/9 107/26/5 
f 20/6/9 107/26/5 178/26/5 
f 178/26/5 107/26/5 12/3/114 
f 178/26/5 12/3/114 10/3/114 
s 4
f 35/24/1 36/6/1 42/26/1 
f 35/24/1 42/26/1 130/25/1 
f 130/25/1 42/26/1 44/3/1 
f 130/25/1 44/3/1 128/4/105 
s 2
f 28/2/115 26/2/115 179/5/13 
f 28/2/115 179/5/13 150/5/89 
f 150/5/89 179/5/13 180/6/116 
f 150/5/89 180/6/116 149/6/116 
f 149/6/116 180/6/116 181/26/117 
f 149/6/116 181/26/117 148/26/117 
f 148/26/117 181/26/117 29/3/118 
f 148/26/117 29/3/118 31/3/118 
s 4
f 30/4/5 29/3/5 181/26/5 
f 30/4/5 181/26/5 143/25/5 
f 143/25/5 181/26/5 180/6/119 
f 143/25/5 180/6/119 145/24/119 
f 145/24/119 180/6/119 179/5/120 
f 145/24/119 179/5/120 147/23/120 
f 147/23/120 179/5/120 26/2/120 
f 147/23/120 26/2/120 25/1/5 
s 2
f 24/6/121 22/6/121 138/26/122 
f 24/6/121 138/26/122 182/26/122 
f 182/26/122 138/26/122 139/3/99 
f 182/26/122 139/3/99 135/3/99 
s 4
f 23/24/112 24/6/112 182/26/72 
f 23/24/112 182/26/72 124/25/113 
f 124/25/113 182/26/72 135/3/85 
f 124/25/113 135/3/85 126/4/84 
f 58/22/1 95/43/1 158/72/1 
f 58/22/1 158/72/1 183/20/1 
f 183/20/1 158/72/1 99/44/1 
f 183/20/1 99/44/1 61/17/1 
s 32
f 60/21/30 58/22/30 183/20/30 
f 60/21/30 183/20/30 159/19/43 
f 159/19/43 183/20/30 61/17/43 
f 159/19/43 61/17/43 63/18/43 
f 57/30/37 59/29/37 160/60/37 
f 57/30/37 160/60/37 184/73/37 
f 184/73/37 160/60/37 64/27/37 
f 184/73/37 64/27/37 62/28/37 
s 4
f 169/42/1 57/30/1 184/73/1 
f 169/42/1 184/73/1 170/74/1 
f 170/74/1 184/73/1 62/28/1 
f 170/74/1 62/28/1 97/41/1 
# 0 polygons - 356 triangles

