# 3ds Max Wavefront OBJ Exporter v0.97b - (c)2007 guruware
# File Created: 26.09.2013 02:18:55

mtllib DecoyGloveAmmo.mtl

#
# object default
#

v  0.0000 24.0000 2.7793
v  1.9648 24.0000 1.9648
v  0.0000 24.0000 0.0000
v  2.7793 24.0000 0.0000
v  1.9648 24.0000 -1.9648
v  0.0000 24.0000 -2.7793
v  -1.9648 24.0000 -1.9648
v  -2.7793 24.0000 -0.0000
v  -1.9648 24.0000 1.9648
v  -2.1318 23.7090 -0.0000
v  -2.1318 21.2568 -0.0000
v  -1.8457 21.2568 1.0713
v  -1.8457 23.7090 1.0713
v  -1.0654 21.2568 1.8555
v  -1.0654 23.7090 1.8555
v  0.0000 21.2568 2.1426
v  0.0000 23.7090 2.1426
v  1.0654 21.2568 1.8555
v  1.0654 23.7090 1.8555
v  1.8457 21.2568 1.0713
v  1.8457 23.7090 1.0713
v  2.1318 21.2568 0.0000
v  2.1318 23.7090 0.0000
v  1.8457 21.2568 -1.0713
v  1.8457 23.7090 -1.0713
v  1.0654 21.2568 -1.8555
v  1.0654 23.7090 -1.8555
v  0.0000 21.2568 -2.1426
v  0.0000 23.7090 -2.1426
v  -1.0654 21.2568 -1.8555
v  -1.0654 23.7090 -1.8555
v  -1.8457 21.2568 -1.0713
v  -1.8457 23.7090 -1.0713
v  0.0000 22.1553 2.7793
v  1.9648 22.1553 1.9648
v  2.7793 22.1553 0.0000
v  1.9648 22.1553 -1.9648
v  0.0000 22.1553 -2.7793
v  -1.9648 22.1553 -1.9648
v  -2.7793 22.1553 -0.0000
v  -1.9648 22.1553 1.9648
v  -9.1113 17.5293 5.2861
v  -10.5205 4.3662 -0.0000
v  -9.1113 4.3662 5.2861
v  -5.2598 17.5293 9.1572
v  -5.2598 4.3662 9.1572
v  0.0000 17.5293 10.5732
v  -0.0000 4.3662 10.5732
v  5.2598 17.5293 9.1572
v  5.2598 4.3662 9.1572
v  9.1113 17.5293 5.2861
v  9.1113 4.3662 5.2861
v  10.5205 17.5293 0.0000
v  10.5205 4.3662 0.0000
v  9.1113 17.5293 -5.2861
v  9.1113 4.3662 -5.2861
v  5.2598 17.5293 -9.1572
v  5.2598 4.3662 -9.1572
v  0.0000 17.5293 -10.5732
v  0.0000 4.3662 -10.5732
v  -5.2598 17.5293 -9.1572
v  -5.2598 4.3662 -9.1572
v  -9.1113 17.5293 -5.2861
v  -9.1113 4.3662 -5.2861
v  -8.4697 3.2813 -4.9141
v  -9.7803 3.2813 -0.0000
v  -7.1924 2.4297 -4.1738
v  -8.3057 2.4297 -0.0000
v  -8.4697 3.2813 4.9141
v  -4.8896 3.2813 8.5127
v  -0.0000 3.2813 9.8291
v  4.8896 3.2812 8.5127
v  8.4697 3.2812 4.9141
v  9.7803 3.2812 0.0000
v  8.4697 3.2812 -4.9141
v  4.8896 3.2812 -8.5127
v  0.0000 3.2813 -9.8291
v  -4.8896 3.2813 -8.5127
v  -4.1523 2.4297 -7.2285
v  0.0000 2.4297 -8.3477
v  4.1523 2.4297 -7.2285
v  7.1924 2.4297 -4.1738
v  8.3057 2.4297 0.0000
v  7.1924 2.4297 4.1738
v  4.1523 2.4297 7.2285
v  -0.0000 2.4297 8.3477
v  -4.1523 2.4297 7.2285
v  -7.1924 2.4297 4.1738
v  -7.1592 -0.0010 0.9717
v  -2.9170 2.0020 0.9717
v  -4.3760 3.1670 -0.0000
v  -8.6357 1.1631 -0.0000
v  -2.9170 2.0020 -0.9717
v  -7.1592 -0.0010 -0.9717
v  -8.2139 1.1631 -2.6680
v  -6.8086 -0.0010 -2.2119
v  -6.9863 1.1631 -5.0762
v  -5.7920 -0.0010 -4.2080
v  -5.0762 1.1631 -6.9863
v  -4.2080 -0.0010 -5.7920
v  -2.6680 1.1631 -8.2139
v  -2.2119 -0.0010 -6.8086
v  0.0000 1.1631 -8.6357
v  -0.9717 -0.0010 -7.1592
v  -0.9717 2.0020 -2.4307
v  0.0000 3.1670 -3.8896
v  0.9717 2.0020 -2.4307
v  0.9717 -0.0010 -7.1592
v  2.6680 1.1631 -8.2139
v  2.2119 -0.0010 -6.8086
v  5.0762 1.1631 -6.9863
v  4.2080 -0.0010 -5.7920
v  6.9863 1.1631 -5.0762
v  5.7920 -0.0010 -4.2080
v  8.2139 1.1631 -2.6680
v  6.8086 -0.0010 -2.2119
v  8.6357 1.1631 0.0000
v  7.1592 -0.0010 -0.9717
v  2.9170 2.0020 -0.9717
v  4.3760 3.1670 0.0000
v  2.9170 2.0020 0.9717
v  7.1592 -0.0010 0.9717
v  8.2139 1.1631 2.6680
v  6.8086 -0.0010 2.2119
v  6.9863 1.1631 5.0762
v  5.7920 -0.0010 4.2080
v  5.0762 1.1631 6.9863
v  4.2080 -0.0010 5.7920
v  2.6680 1.1631 8.2139
v  2.2119 -0.0010 6.8086
v  -0.0000 1.1631 8.6357
v  0.9717 -0.0010 7.1592
v  0.9717 2.0020 2.4307
v  -0.0000 3.1670 3.8896
v  -0.9717 2.0020 2.4307
v  -0.9717 -0.0010 7.1592
v  -2.6680 1.1631 8.2139
v  -2.2119 -0.0010 6.8086
v  -5.0762 1.1631 6.9863
v  -4.2080 -0.0010 5.7920
v  -6.9863 1.1631 5.0762
v  -5.7920 -0.0010 4.2080
v  -8.2139 1.1631 2.6680
v  -6.8086 -0.0010 2.2119
v  -9.5088 -0.0010 -0.0000
v  -9.0430 -0.0010 -2.9375
v  -7.6924 -0.0010 -5.5889
v  -5.5889 -0.0010 -7.6924
v  -2.9375 -0.0010 -9.0430
v  0.0000 -0.0010 -9.5088
v  2.9375 -0.0010 -9.0430
v  5.5889 -0.0010 -7.6924
v  7.6924 -0.0010 -5.5889
v  9.0430 -0.0010 -2.9375
v  9.5088 -0.0010 0.0000
v  9.0430 -0.0010 2.9375
v  7.6924 -0.0010 5.5889
v  5.5889 -0.0010 7.6924
v  2.9375 -0.0010 9.0430
v  -0.0000 -0.0010 9.5088
v  -2.9375 -0.0010 9.0430
v  -5.5889 -0.0010 7.6924
v  -7.6924 -0.0010 5.5889
v  -9.0430 -0.0010 2.9375
v  0.0000 2.4297 0.0000
v  -5.0391 20.6270 -0.0000
v  -4.3643 20.6270 2.5322
v  -2.5195 20.6270 4.3867
v  0.0000 20.6270 5.0645
v  2.5195 20.6270 4.3867
v  4.3643 20.6270 2.5322
v  5.0391 20.6270 0.0000
v  4.3643 20.6270 -2.5322
v  2.5195 20.6270 -4.3867
v  0.0000 20.6270 -5.0645
v  -2.5195 20.6270 -4.3867
v  -4.3643 20.6270 -2.5322
v  -8.5791 19.3232 -0.0000
v  -7.4297 19.3232 4.3115
v  -4.2891 19.3232 7.4678
v  0.0000 19.3232 8.6230
v  4.2891 19.3232 7.4678
v  7.4297 19.3232 4.3115
v  8.5791 19.3232 0.0000
v  7.4297 19.3232 -4.3115
v  4.2891 19.3232 -7.4678
v  0.0000 19.3232 -8.6230
v  -4.2891 19.3232 -7.4678
v  -7.4297 19.3232 -4.3115
v  -10.5205 17.5293 -0.0000
# 190 vertices

vn 0.0000 1.0000 0.0000
vn -1.0000 0.0000 -0.0000
vn -0.8668 0.0000 0.4986
vn -0.5017 0.0000 0.8650
vn -0.0000 0.0000 1.0000
vn -0.0000 -0.0000 1.0000
vn 0.5017 -0.0000 0.8650
vn 0.8668 -0.0000 0.4986
vn 1.0000 -0.0000 0.0000
vn 0.8668 -0.0000 -0.4986
vn 0.5017 -0.0000 -0.8650
vn 0.0000 0.0000 -1.0000
vn -0.5017 0.0000 -0.8650
vn -0.8668 0.0000 -0.4986
vn 0.7071 -0.0000 0.7071
vn 0.7071 -0.0000 -0.7071
vn -0.7071 0.0000 -0.7071
vn -0.7071 0.0000 0.7071
vn -0.8023 0.3787 0.4613
vn -0.9594 -0.2821 -0.0000
vn -0.8316 -0.2825 0.4782
vn -0.4641 0.3791 0.8006
vn -0.4810 -0.2829 0.8298
vn 0.0000 0.3793 0.9253
vn 0.0000 -0.2831 0.9591
vn 0.4640 0.3791 0.8006
vn 0.4810 -0.2829 0.8298
vn 0.8023 0.3787 0.4613
vn 0.8316 -0.2825 0.4782
vn 0.9256 0.3785 -0.0000
vn 0.9594 -0.2821 -0.0000
vn 0.8023 0.3787 -0.4613
vn 0.8316 -0.2825 -0.4782
vn 0.4641 0.3791 -0.8006
vn 0.4810 -0.2829 -0.8298
vn -0.0000 0.3793 -0.9253
vn -0.0000 -0.2831 -0.9591
vn -0.4640 0.3791 -0.8006
vn -0.4810 -0.2829 -0.8298
vn -0.8023 0.3787 -0.4613
vn -0.8316 -0.2825 -0.4782
vn -0.6056 -0.7157 -0.3480
vn -0.6989 -0.7153 -0.0000
vn -0.2583 -0.9546 -0.1482
vn -0.2980 -0.9546 -0.0000
vn -0.6055 -0.7157 0.3480
vn -0.3501 -0.7164 0.6035
vn 0.0000 -0.7166 0.6974
vn 0.3501 -0.7164 0.6035
vn 0.6055 -0.7157 0.3480
vn 0.6989 -0.7153 -0.0000
vn 0.6055 -0.7157 -0.3480
vn 0.3501 -0.7164 -0.6035
vn -0.0000 -0.7166 -0.6974
vn -0.3501 -0.7164 -0.6035
vn -0.1493 -0.9548 -0.2571
vn -0.0000 -0.9548 -0.2973
vn 0.1494 -0.9548 -0.2570
vn 0.2583 -0.9546 -0.1483
vn 0.2980 -0.9546 -0.0000
vn 0.2582 -0.9546 0.1483
vn 0.1493 -0.9548 0.2571
vn 0.0000 -0.9548 0.2973
vn -0.1494 -0.9548 0.2570
vn -0.2582 -0.9546 0.1483
vn -0.2132 0.4529 0.8657
vn -0.2141 0.4535 0.8652
vn -0.2138 0.4533 0.8653
vn -0.2129 0.4527 0.8659
vn -0.2135 0.4527 -0.8657
vn -0.2136 0.4540 -0.8650
vn -0.2135 0.4535 -0.8653
vn -0.2135 0.4521 -0.8660
vn 0.6570 0.7467 0.1039
vn 0.6320 0.7638 0.1312
vn 0.5964 0.7754 0.2075
vn 0.5763 0.7849 0.2278
vn 0.5008 0.7853 0.3639
vn 0.5009 0.7853 0.3638
vn 0.3640 0.7853 0.5008
vn 0.3639 0.7853 0.5008
vn 0.1912 0.7854 0.5887
vn 0.2099 0.7725 0.5993
vn 0.1299 0.7575 0.6398
vn 0.1930 0.7048 0.6826
vn -0.8611 0.4682 -0.1981
vn -0.8614 0.4677 -0.1981
vn -0.8607 0.4690 -0.1982
vn -0.8604 0.4694 -0.1982
vn 0.8611 0.4682 -0.1981
vn 0.8604 0.4694 -0.1982
vn 0.8607 0.4690 -0.1982
vn 0.8614 0.4677 -0.1981
vn -0.1039 0.7467 0.6570
vn -0.1312 0.7638 0.6320
vn -0.2075 0.7754 0.5964
vn -0.2278 0.7849 0.5763
vn -0.3639 0.7853 0.5008
vn -0.3638 0.7853 0.5009
vn -0.5008 0.7853 0.3640
vn -0.5008 0.7853 0.3639
vn -0.5887 0.7854 0.1912
vn -0.5993 0.7725 0.2099
vn -0.6398 0.7575 0.1299
vn -0.6826 0.7048 0.1930
vn 0.2135 0.4527 -0.8657
vn 0.2135 0.4521 -0.8660
vn 0.2135 0.4535 -0.8653
vn 0.2136 0.4540 -0.8650
vn 0.2135 0.4527 0.8657
vn 0.2136 0.4540 0.8650
vn 0.2135 0.4535 0.8653
vn 0.2135 0.4521 0.8660
vn -0.6570 0.7467 -0.1039
vn -0.6320 0.7638 -0.1312
vn -0.5964 0.7754 -0.2075
vn -0.5763 0.7849 -0.2278
vn -0.5008 0.7853 -0.3639
vn -0.5009 0.7853 -0.3638
vn -0.3640 0.7853 -0.5008
vn -0.3639 0.7853 -0.5008
vn -0.1912 0.7854 -0.5887
vn -0.2099 0.7725 -0.5993
vn -0.1299 0.7575 -0.6398
vn -0.1930 0.7048 -0.6826
vn 0.8611 0.4682 0.1981
vn 0.8614 0.4677 0.1981
vn 0.8607 0.4690 0.1982
vn 0.8604 0.4694 0.1982
vn -0.8611 0.4682 0.1981
vn -0.8604 0.4694 0.1982
vn -0.8607 0.4690 0.1982
vn -0.8614 0.4677 0.1981
vn 0.1039 0.7467 -0.6570
vn 0.1312 0.7638 -0.6320
vn 0.2075 0.7754 -0.5964
vn 0.2278 0.7849 -0.5763
vn 0.3639 0.7853 -0.5008
vn 0.3638 0.7853 -0.5009
vn 0.5008 0.7853 -0.3640
vn 0.5008 0.7853 -0.3639
vn 0.5965 0.7753 -0.2075
vn 0.5763 0.7849 -0.2278
vn 0.6320 0.7638 -0.1312
vn 0.6570 0.7467 -0.1039
vn -0.7611 0.5996 0.2473
vn -0.8000 0.6000 -0.0000
vn -0.8001 0.5998 -0.0000
vn -0.7611 0.5995 -0.2474
vn -0.7612 0.5995 -0.2474
vn -0.6474 0.5997 -0.4703
vn -0.6474 0.5998 -0.4703
vn -0.4704 0.5998 -0.6473
vn -0.4704 0.5997 -0.6474
vn -0.2472 0.5995 -0.7612
vn -0.2473 0.5995 -0.7612
vn -0.0001 0.5999 -0.8001
vn 0.2474 0.5995 -0.7611
vn 0.2474 0.5995 -0.7612
vn 0.4703 0.5997 -0.6474
vn 0.4703 0.5998 -0.6474
vn 0.6473 0.5998 -0.4704
vn 0.6474 0.5997 -0.4704
vn 0.7612 0.5995 -0.2472
vn 0.7612 0.5995 -0.2473
vn 0.8001 0.5999 -0.0001
vn 0.7611 0.5995 0.2474
vn 0.7612 0.5995 0.2474
vn 0.6474 0.5997 0.4703
vn 0.6474 0.5998 0.4703
vn 0.4704 0.5998 0.6473
vn 0.4704 0.5997 0.6474
vn 0.2472 0.5995 0.7612
vn 0.2473 0.5995 0.7612
vn 0.0001 0.5999 0.8001
vn -0.2474 0.5995 0.7611
vn -0.2474 0.5995 0.7612
vn -0.4703 0.5997 0.6474
vn -0.4703 0.5998 0.6474
vn -0.6473 0.5998 0.4704
vn -0.6474 0.5997 0.4704
vn -0.7612 0.5995 0.2474
vn -0.0000 -1.0000 -0.0000
vn -0.2117 0.9773 -0.0000
vn -0.2899 0.9571 -0.0000
vn -0.2512 0.9571 0.1442
vn -0.1834 0.9774 0.1053
vn -0.1450 0.9573 0.2500
vn -0.1060 0.9775 0.1824
vn -0.0000 0.9574 0.2887
vn -0.0000 0.9775 0.2107
vn 0.1451 0.9573 0.2499
vn 0.1060 0.9775 0.1824
vn 0.2512 0.9571 0.1442
vn 0.1834 0.9774 0.1053
vn 0.2899 0.9571 0.0000
vn 0.2117 0.9773 0.0000
vn 0.2512 0.9571 -0.1442
vn 0.1834 0.9774 -0.1053
vn 0.1450 0.9573 -0.2500
vn 0.1060 0.9775 -0.1824
vn 0.0000 0.9574 -0.2887
vn 0.0000 0.9775 -0.2107
vn -0.1451 0.9573 -0.2499
vn -0.1060 0.9775 -0.1824
vn -0.2512 0.9571 -0.1442
vn -0.1834 0.9774 -0.1053
vn -0.5449 0.8385 -0.0000
vn -0.4722 0.8387 0.2713
vn -0.2729 0.8392 0.4703
vn 0.0000 0.8394 0.5434
vn 0.2729 0.8392 0.4703
vn 0.4721 0.8387 0.2713
vn 0.5449 0.8385 0.0000
vn 0.4722 0.8387 -0.2713
vn 0.2729 0.8392 -0.4703
vn -0.0000 0.8394 -0.5434
vn -0.2729 0.8392 -0.4703
vn -0.4722 0.8387 -0.2713
vn -0.9256 0.3785 -0.0000
# 220 vertex normals

vt 0.1914 0.9026 0.0000
vt 0.1648 0.9644 0.0000
vt 0.1003 0.9026 0.0000
vt 0.1003 0.9900 0.0000
vt 0.0361 0.9644 0.0000
vt 0.0095 0.9026 0.0000
vt 0.0361 0.8411 0.0000
vt 0.1003 0.8154 0.0000
vt 0.1648 0.8411 0.0000
vt 0.0176 0.6423 0.0000
vt 0.1406 0.6423 0.0000
vt 0.1406 0.6689 0.0000
vt 0.0176 0.6689 0.0000
vt 0.1406 0.6956 0.0000
vt 0.0176 0.6956 0.0000
vt 0.1406 0.7224 0.0000
vt 0.0176 0.7224 0.0000
vt 0.1406 0.7490 0.0000
vt 0.0176 0.7490 0.0000
vt 0.1406 0.7759 0.0000
vt 0.0176 0.7759 0.0000
vt 0.1406 0.8025 0.0000
vt 0.0176 0.8025 0.0000
vt 0.7900 0.8210 0.0000
vt 0.9502 0.8210 0.0000
vt 0.9502 0.9023 0.0000
vt 0.7900 0.9023 0.0000
vt 0.9502 0.9834 0.0000
vt 0.7900 0.9834 0.0000
vt 0.9502 0.7397 0.0000
vt 0.7900 0.7397 0.0000
vt 0.9502 0.6584 0.0000
vt 0.7900 0.6584 0.0000
vt 0.1733 0.4387 0.0000
vt 0.0076 0.0596 0.0000
vt 0.1733 0.0596 0.0000
vt 0.3340 0.4387 0.0000
vt 0.3340 0.0596 0.0000
vt 0.4985 0.4387 0.0000
vt 0.4985 0.0596 0.0000
vt 0.6631 0.4387 0.0000
vt 0.6631 0.0596 0.0000
vt 0.8237 0.4387 0.0000
vt 0.8237 0.0596 0.0000
vt 0.9895 0.4387 0.0000
vt 0.9895 0.0596 0.0000
vt 0.1736 0.0349 0.0000
vt 0.0078 0.0349 0.0000
vt 0.1736 0.0139 0.0000
vt 0.0078 0.0139 0.0000
vt 0.3340 0.0349 0.0000
vt 0.4985 0.0349 0.0000
vt 0.6631 0.0349 0.0000
vt 0.8235 0.0349 0.0000
vt 0.9893 0.0349 0.0000
vt 0.3340 0.0139 0.0000
vt 0.4985 0.0139 0.0000
vt 0.6631 0.0139 0.0000
vt 0.8235 0.0139 0.0000
vt 0.9893 0.0139 0.0000
vt 0.6941 0.8879 0.0000
vt 0.6941 0.7510 0.0000
vt 0.7256 0.7981 0.0000
vt 0.7256 0.9358 0.0000
vt 0.6389 0.9221 0.0000
vt 0.6538 0.8767 0.0000
vt 0.5610 0.8823 0.0000
vt 0.5891 0.8438 0.0000
vt 0.4990 0.8206 0.0000
vt 0.5378 0.7927 0.0000
vt 0.4592 0.7429 0.0000
vt 0.5049 0.7280 0.0000
vt 0.4456 0.6567 0.0000
vt 0.4934 0.6880 0.0000
vt 0.6467 0.6880 0.0000
vt 0.5994 0.6567 0.0000
vt 0.7256 0.9639 0.0000
vt 0.6304 0.9487 0.0000
vt 0.5444 0.9053 0.0000
vt 0.4761 0.8372 0.0000
vt 0.4324 0.7515 0.0000
vt 0.4172 0.6567 0.0000
vt 0.2791 0.6475 0.0000
vt 0.2183 0.6626 0.0000
vt 0.2791 0.7607 0.0000
vt 0.1736 0.7041 0.0000
vt 0.1572 0.7607 0.0000
vt 0.1736 0.8174 0.0000
vt 0.2183 0.8586 0.0000
vt 0.2791 0.8738 0.0000
vt 0.3401 0.8586 0.0000
vt 0.3848 0.8174 0.0000
vt 0.4011 0.7607 0.0000
vt 0.3848 0.7041 0.0000
vt 0.3401 0.6626 0.0000
vt 0.0078 0.6277 0.0000
vt 0.0078 0.5664 0.0000
vt 0.1736 0.5664 0.0000
vt 0.1736 0.6277 0.0000
vt 0.3342 0.5664 0.0000
vt 0.3342 0.6277 0.0000
vt 0.4985 0.5664 0.0000
vt 0.4985 0.6277 0.0000
vt 0.6631 0.5664 0.0000
vt 0.6631 0.6277 0.0000
vt 0.8235 0.5664 0.0000
vt 0.8235 0.6277 0.0000
vt 0.9893 0.5664 0.0000
vt 0.9893 0.6277 0.0000
vt 0.0076 0.4915 0.0000
vt 0.1736 0.4915 0.0000
vt 0.3340 0.4915 0.0000
vt 0.4985 0.4915 0.0000
vt 0.6631 0.4915 0.0000
vt 0.8235 0.4915 0.0000
vt 0.9895 0.4915 0.0000
vt 0.0076 0.4387 0.0000
# 117 texture coords

g default
usemtl Material__10
s 1
f 1/1/1 2/2/1 3/3/1 
f 3/3/1 2/2/1 4/4/1 
f 3/3/1 4/4/1 5/5/1 
f 3/3/1 5/5/1 6/6/1 
f 3/3/1 6/6/1 7/7/1 
f 3/3/1 7/7/1 8/8/1 
f 3/3/1 8/8/1 9/9/1 
f 3/3/1 9/9/1 1/1/1 
f 10/10/2 11/11/2 12/12/3 
f 10/10/2 12/12/3 13/13/3 
f 13/13/3 12/12/3 14/14/4 
f 13/13/3 14/14/4 15/15/4 
f 15/15/4 14/14/4 16/16/5 
f 15/15/4 16/16/5 17/17/6 
f 17/17/6 16/16/5 18/18/7 
f 17/17/6 18/18/7 19/19/7 
f 19/19/7 18/18/7 20/20/8 
f 19/19/7 20/20/8 21/21/8 
f 21/21/8 20/20/8 22/22/9 
f 21/21/8 22/22/9 23/23/9 
f 23/23/9 22/22/9 24/20/10 
f 23/23/9 24/20/10 25/21/10 
f 25/21/10 24/20/10 26/18/11 
f 25/21/10 26/18/11 27/19/11 
f 27/19/11 26/18/11 28/16/12 
f 27/19/11 28/16/12 29/17/12 
f 29/17/12 28/16/12 30/14/13 
f 29/17/12 30/14/13 31/15/13 
f 31/15/13 30/14/13 32/12/14 
f 31/15/13 32/12/14 33/13/14 
f 33/13/14 32/12/14 11/11/2 
f 33/13/14 11/11/2 10/10/2 
s 2
f 1/24/6 34/25/6 35/26/15 
f 1/24/6 35/26/15 2/27/15 
f 2/27/15 35/26/15 36/28/9 
f 2/27/15 36/28/9 4/29/9 
f 4/29/9 36/28/9 37/26/16 
f 4/29/9 37/26/16 5/27/16 
f 5/27/16 37/26/16 38/25/12 
f 5/27/16 38/25/12 6/24/12 
f 6/24/12 38/25/12 39/30/17 
f 6/24/12 39/30/17 7/31/17 
f 7/31/17 39/30/17 40/32/2 
f 7/31/17 40/32/2 8/33/2 
f 8/33/2 40/32/2 41/30/18 
f 8/33/2 41/30/18 9/31/18 
f 9/31/18 41/30/18 34/25/6 
f 9/31/18 34/25/6 1/24/6 
f 42/34/19 43/35/20 44/36/21 
f 42/34/19 44/36/21 45/37/22 
f 45/37/22 44/36/21 46/38/23 
f 45/37/22 46/38/23 47/39/24 
f 47/39/24 46/38/23 48/40/25 
f 47/39/24 48/40/25 49/41/26 
f 49/41/26 48/40/25 50/42/27 
f 49/41/26 50/42/27 51/43/28 
f 51/43/28 50/42/27 52/44/29 
f 51/43/28 52/44/29 53/45/30 
f 53/45/30 52/44/29 54/46/31 
f 53/45/30 54/46/31 55/43/32 
f 55/43/32 54/46/31 56/44/33 
f 55/43/32 56/44/33 57/41/34 
f 57/41/34 56/44/33 58/42/35 
f 57/41/34 58/42/35 59/39/36 
f 59/39/36 58/42/35 60/40/37 
f 59/39/36 60/40/37 61/37/38 
f 61/37/38 60/40/37 62/38/39 
f 61/37/38 62/38/39 63/34/40 
f 63/34/40 62/38/39 64/36/41 
f 63/34/40 64/36/41 43/35/20 
f 43/35/20 64/36/41 65/47/42 
f 43/35/20 65/47/42 66/48/43 
f 66/48/43 65/47/42 67/49/44 
f 66/48/43 67/49/44 68/50/45 
f 66/48/43 68/50/45 69/47/46 
f 66/48/43 69/47/46 43/35/20 
f 43/35/20 69/47/46 44/36/21 
f 44/36/21 69/47/46 70/51/47 
f 44/36/21 70/51/47 46/38/23 
f 46/38/23 70/51/47 71/52/48 
f 46/38/23 71/52/48 48/40/25 
f 48/40/25 71/52/48 72/53/49 
f 48/40/25 72/53/49 50/42/27 
f 50/42/27 72/53/49 73/54/50 
f 50/42/27 73/54/50 52/44/29 
f 52/44/29 73/54/50 74/55/51 
f 52/44/29 74/55/51 54/46/31 
f 54/46/31 74/55/51 75/54/52 
f 54/46/31 75/54/52 56/44/33 
f 56/44/33 75/54/52 76/53/53 
f 56/44/33 76/53/53 58/42/35 
f 58/42/35 76/53/53 77/52/54 
f 58/42/35 77/52/54 60/40/37 
f 60/40/37 77/52/54 78/51/55 
f 60/40/37 78/51/55 62/38/39 
f 62/38/39 78/51/55 64/36/41 
f 64/36/41 78/51/55 65/47/42 
f 65/47/42 78/51/55 67/49/44 
f 67/49/44 78/51/55 79/56/56 
f 79/56/56 78/51/55 77/52/54 
f 79/56/56 77/52/54 80/57/57 
f 80/57/57 77/52/54 76/53/53 
f 80/57/57 76/53/53 81/58/58 
f 81/58/58 76/53/53 75/54/52 
f 81/58/58 75/54/52 82/59/59 
f 82/59/59 75/54/52 74/55/51 
f 82/59/59 74/55/51 83/60/60 
f 83/60/60 74/55/51 73/54/50 
f 83/60/60 73/54/50 84/59/61 
f 84/59/61 73/54/50 72/53/49 
f 84/59/61 72/53/49 85/58/62 
f 85/58/62 72/53/49 71/52/48 
f 85/58/62 71/52/48 86/57/63 
f 86/57/63 71/52/48 70/51/47 
f 86/57/63 70/51/47 87/56/64 
f 87/56/64 70/51/47 69/47/46 
f 87/56/64 69/47/46 88/49/65 
f 88/49/65 69/47/46 68/50/45 
s 1
f 89/61/66 90/62/67 91/63/68 
f 89/61/66 91/63/68 92/64/69 
s 2
f 92/64/70 91/63/71 93/62/72 
f 92/64/70 93/62/72 94/61/73 
s 4
f 92/64/74 94/61/75 95/65/76 
f 95/65/76 94/61/75 96/66/77 
f 95/65/76 96/66/77 97/67/78 
f 97/67/78 96/66/77 98/68/79 
f 97/67/78 98/68/79 99/69/80 
f 99/69/80 98/68/79 100/70/81 
f 99/69/80 100/70/81 101/71/82 
f 101/71/82 100/70/81 102/72/83 
f 101/71/82 102/72/83 103/73/84 
f 103/73/84 102/72/83 104/74/85 
s 1
f 103/73/86 104/74/87 105/75/88 
f 103/73/86 105/75/88 106/76/89 
s 2
f 103/73/90 106/76/91 107/75/92 
f 103/73/90 107/75/92 108/74/93 
s 8
f 103/73/94 108/74/95 109/71/96 
f 109/71/96 108/74/95 110/72/97 
f 109/71/96 110/72/97 111/69/98 
f 111/69/98 110/72/97 112/70/99 
f 111/69/98 112/70/99 113/67/100 
f 113/67/100 112/70/99 114/68/101 
f 113/67/100 114/68/101 115/65/102 
f 115/65/102 114/68/101 116/66/103 
f 115/65/102 116/66/103 117/64/104 
f 117/64/104 116/66/103 118/61/105 
s 1
f 117/64/106 118/61/107 119/62/108 
f 117/64/106 119/62/108 120/63/109 
s 2
f 117/64/110 120/63/111 121/62/112 
f 117/64/110 121/62/112 122/61/113 
s 4
f 117/64/114 122/61/115 123/65/116 
f 123/65/116 122/61/115 124/66/117 
f 123/65/116 124/66/117 125/67/118 
f 125/67/118 124/66/117 126/68/119 
f 125/67/118 126/68/119 127/69/120 
f 127/69/120 126/68/119 128/70/121 
f 127/69/120 128/70/121 129/71/122 
f 129/71/122 128/70/121 130/72/123 
f 129/71/122 130/72/123 131/73/124 
f 131/73/124 130/72/123 132/74/125 
s 1
f 131/73/126 132/74/127 133/75/128 
f 131/73/126 133/75/128 134/76/129 
s 2
f 131/73/130 134/76/131 135/75/132 
f 131/73/130 135/75/132 136/74/133 
s 8
f 131/73/134 136/74/135 137/71/136 
f 137/71/136 136/74/135 138/72/137 
f 137/71/136 138/72/137 139/69/138 
f 139/69/138 138/72/137 140/70/139 
f 139/69/138 140/70/139 141/67/140 
f 141/67/140 140/70/139 142/68/141 
f 141/67/140 142/68/141 143/65/142 
f 143/65/142 142/68/141 144/66/143 
f 143/65/142 144/66/143 89/61/144 
f 143/65/142 89/61/144 92/64/145 
s 16
f 143/65/146 92/64/147 145/77/148 
f 145/77/148 92/64/147 95/65/149 
f 145/77/148 95/65/149 146/78/150 
f 146/78/150 95/65/149 97/67/151 
f 146/78/150 97/67/151 147/79/152 
f 147/79/152 97/67/151 99/69/153 
f 147/79/152 99/69/153 148/80/154 
f 148/80/154 99/69/153 101/71/155 
f 148/80/154 101/71/155 149/81/156 
f 149/81/156 101/71/155 103/73/157 
f 149/81/156 103/73/157 150/82/157 
f 150/82/157 103/73/157 109/71/158 
f 150/82/157 109/71/158 151/81/159 
f 151/81/159 109/71/158 111/69/160 
f 151/81/159 111/69/160 152/80/161 
f 152/80/161 111/69/160 113/67/162 
f 152/80/161 113/67/162 153/79/163 
f 153/79/163 113/67/162 115/65/164 
f 153/79/163 115/65/164 154/78/165 
f 154/78/165 115/65/164 117/64/166 
f 154/78/165 117/64/166 155/77/166 
f 155/77/166 117/64/166 123/65/167 
f 155/77/166 123/65/167 156/78/168 
f 156/78/168 123/65/167 125/67/169 
f 156/78/168 125/67/169 157/79/170 
f 157/79/170 125/67/169 127/69/171 
f 157/79/170 127/69/171 158/80/172 
f 158/80/172 127/69/171 129/71/173 
f 158/80/172 129/71/173 159/81/174 
f 159/81/174 129/71/173 131/73/175 
f 159/81/174 131/73/175 160/82/175 
f 160/82/175 131/73/175 137/71/176 
f 160/82/175 137/71/176 161/81/177 
f 161/81/177 137/71/176 139/69/178 
f 161/81/177 139/69/178 162/80/179 
f 162/80/179 139/69/178 141/67/180 
f 162/80/179 141/67/180 163/79/181 
f 163/79/181 141/67/180 143/65/146 
f 163/79/181 143/65/146 164/78/182 
f 164/78/182 143/65/146 145/77/148 
s 2
f 68/83/45 67/84/44 165/85/183 
f 165/85/183 67/84/44 79/86/56 
f 165/85/183 79/86/56 80/87/57 
f 165/85/183 80/87/57 81/88/58 
f 165/85/183 81/88/58 82/89/59 
f 165/85/183 82/89/59 83/90/60 
f 165/85/183 83/90/60 84/91/61 
f 165/85/183 84/91/61 85/92/62 
f 165/85/183 85/92/62 86/93/63 
f 165/85/183 86/93/63 87/94/64 
f 165/85/183 87/94/64 88/95/65 
f 165/85/183 88/95/65 68/83/45 
f 11/96/184 166/97/185 167/98/186 
f 11/96/184 167/98/186 12/99/187 
f 12/99/187 167/98/186 168/100/188 
f 12/99/187 168/100/188 14/101/189 
f 14/101/189 168/100/188 169/102/190 
f 14/101/189 169/102/190 16/103/191 
f 16/103/191 169/102/190 170/104/192 
f 16/103/191 170/104/192 18/105/193 
f 18/105/193 170/104/192 171/106/194 
f 18/105/193 171/106/194 20/107/195 
f 20/107/195 171/106/194 172/108/196 
f 20/107/195 172/108/196 22/109/197 
f 22/109/197 172/108/196 173/106/198 
f 22/109/197 173/106/198 24/107/199 
f 24/107/199 173/106/198 174/104/200 
f 24/107/199 174/104/200 26/105/201 
f 26/105/201 174/104/200 175/102/202 
f 26/105/201 175/102/202 28/103/203 
f 28/103/203 175/102/202 176/100/204 
f 28/103/203 176/100/204 30/101/205 
f 30/101/205 176/100/204 177/98/206 
f 30/101/205 177/98/206 32/99/207 
f 32/99/207 177/98/206 11/96/184 
f 11/96/184 177/98/206 166/97/185 
f 166/97/185 177/98/206 178/110/208 
f 166/97/185 178/110/208 167/98/186 
f 167/98/186 178/110/208 179/111/209 
f 167/98/186 179/111/209 168/100/188 
f 168/100/188 179/111/209 180/112/210 
f 168/100/188 180/112/210 169/102/190 
f 169/102/190 180/112/210 181/113/211 
f 169/102/190 181/113/211 170/104/192 
f 170/104/192 181/113/211 182/114/212 
f 170/104/192 182/114/212 171/106/194 
f 171/106/194 182/114/212 183/115/213 
f 171/106/194 183/115/213 172/108/196 
f 172/108/196 183/115/213 184/116/214 
f 172/108/196 184/116/214 173/106/198 
f 173/106/198 184/116/214 185/115/215 
f 173/106/198 185/115/215 174/104/200 
f 174/104/200 185/115/215 186/114/216 
f 174/104/200 186/114/216 175/102/202 
f 175/102/202 186/114/216 187/113/217 
f 175/102/202 187/113/217 176/100/204 
f 176/100/204 187/113/217 188/112/218 
f 176/100/204 188/112/218 177/98/206 
f 177/98/206 188/112/218 189/111/219 
f 177/98/206 189/111/219 178/110/208 
f 178/110/208 189/111/219 190/117/220 
f 178/110/208 190/117/220 179/111/209 
f 179/111/209 190/117/220 42/34/19 
f 179/111/209 42/34/19 180/112/210 
f 180/112/210 42/34/19 45/37/22 
f 180/112/210 45/37/22 181/113/211 
f 181/113/211 45/37/22 47/39/24 
f 181/113/211 47/39/24 182/114/212 
f 182/114/212 47/39/24 49/41/26 
f 182/114/212 49/41/26 183/115/213 
f 183/115/213 49/41/26 51/43/28 
f 183/115/213 51/43/28 184/116/214 
f 184/116/214 51/43/28 53/45/30 
f 184/116/214 53/45/30 185/115/215 
f 185/115/215 53/45/30 55/43/32 
f 185/115/215 55/43/32 186/114/216 
f 186/114/216 55/43/32 57/41/34 
f 186/114/216 57/41/34 187/113/217 
f 187/113/217 57/41/34 59/39/36 
f 187/113/217 59/39/36 188/112/218 
f 188/112/218 59/39/36 61/37/38 
f 188/112/218 61/37/38 189/111/219 
f 189/111/219 61/37/38 63/34/40 
f 189/111/219 63/34/40 190/117/220 
f 190/117/220 63/34/40 43/35/20 
f 190/117/220 43/35/20 42/34/19 
# 0 polygons - 300 triangles

