# 3ds Max Wavefront OBJ Exporter v0.97b - (c)2007 guruware
# File Created: 26.09.2013 02:37:24

mtllib TeslaClawAmmo.mtl

#
# object Object01
#

v  0.0000 22.2900 5.4766
v  0.0000 23.9521 6.1465
v  3.0732 23.9521 5.3232
v  2.7383 22.2900 4.7422
v  5.3232 23.9521 3.0732
v  4.7422 22.2900 2.7383
v  6.1465 23.9521 0.0000
v  5.4766 22.2900 0.0000
v  5.3232 23.9521 -3.0732
v  4.7422 22.2900 -2.7383
v  3.0732 23.9521 -5.3232
v  2.7383 22.2900 -4.7422
v  0.0000 23.9521 -6.1465
v  0.0000 22.2900 -5.4766
v  -3.0732 23.9521 -5.3232
v  -2.7383 22.2900 -4.7422
v  -5.3232 23.9521 -3.0732
v  -4.7422 22.2900 -2.7383
v  -6.1465 23.9522 -0.0000
v  -5.4766 22.2900 -0.0000
v  -5.3232 23.9521 3.0732
v  -4.7422 22.2900 2.7383
v  -3.0732 23.9521 5.3232
v  -2.7383 22.2900 4.7422
v  0.0000 24.0000 7.3721
v  3.6855 24.0000 6.3848
v  6.3848 24.0000 3.6855
v  7.3721 24.0000 0.0000
v  6.3848 24.0000 -3.6855
v  3.6856 24.0000 -6.3848
v  0.0000 24.0000 -7.3721
v  -3.6855 24.0000 -6.3848
v  -6.3848 24.0000 -3.6855
v  -7.3721 24.0000 -0.0000
v  -6.3848 24.0000 3.6855
v  -3.6855 24.0000 6.3848
v  -1.2402 5.0859 -8.5361
v  -1.2402 9.0762 -8.5361
v  1.2402 5.0859 -8.5361
v  1.2402 9.0762 -8.5361
v  -2.3301 5.0859 -6.4600
v  -2.3301 9.0762 -6.4600
v  2.3301 9.0762 -6.4600
v  2.3301 5.0859 -6.4600
v  8.5361 5.0859 -1.2402
v  8.5361 9.0762 -1.2402
v  8.5361 5.0859 1.2402
v  8.5361 9.0762 1.2402
v  6.4600 9.0762 2.3301
v  6.4600 5.0859 2.3301
v  6.4600 5.0859 -2.3301
v  6.4600 9.0762 -2.3301
v  1.2402 5.0859 8.5361
v  1.2402 9.0762 8.5361
v  -1.2402 5.0859 8.5361
v  -1.2402 9.0762 8.5361
v  2.3301 5.0859 6.4600
v  2.3301 9.0762 6.4600
v  -2.3301 9.0762 6.4600
v  -2.3301 5.0859 6.4600
v  -8.5361 5.0869 1.2402
v  -8.5361 9.0762 1.2402
v  -8.5361 5.0869 -1.2402
v  -8.5361 9.0762 -1.2402
v  -6.4600 9.0762 -2.3301
v  -6.4600 5.0869 -2.3301
v  -6.4600 5.0869 2.3301
v  -6.4600 9.0762 2.3301
v  5.3740 -0.0000 9.3086
v  4.9951 5.2959 8.6523
v  -0.0000 5.2959 9.9902
v  -0.0000 0.0000 10.7480
v  -4.9951 5.2959 8.6523
v  -5.3740 0.0000 9.3086
v  -8.6523 5.2959 4.9951
v  -9.3086 0.0000 5.3740
v  -9.9902 5.2959 -0.0000
v  -10.7480 0.0000 -0.0000
v  -8.6523 5.2959 -4.9951
v  -9.3086 0.0000 -5.3740
v  -4.9951 5.2959 -8.6523
v  -5.3740 0.0000 -9.3086
v  0.0000 5.2959 -9.9902
v  0.0000 0.0000 -10.7480
v  4.9951 5.2959 -8.6523
v  5.3740 -0.0000 -9.3086
v  8.6523 5.2959 -4.9951
v  9.3086 -0.0000 -5.3740
v  9.9902 5.2959 0.0000
v  10.7480 -0.0000 0.0000
v  8.6523 5.2959 4.9951
v  9.3086 -0.0000 5.3740
v  4.0781 5.8115 7.0635
v  -0.0000 5.8115 8.1572
v  -4.0781 5.8115 7.0635
v  -7.0635 5.8115 4.0781
v  -8.1572 5.8115 -0.0000
v  -7.0635 5.8115 -4.0781
v  -4.0781 5.8115 -7.0635
v  0.0000 5.8115 -8.1572
v  4.0781 5.8115 -7.0635
v  7.0635 5.8115 -4.0781
v  8.1572 5.8115 0.0000
v  7.0635 5.8115 4.0781
v  4.0781 8.0771 7.0635
v  -0.0000 8.0771 8.1572
v  -4.0781 8.0771 7.0635
v  -7.0635 8.0771 4.0781
v  -8.1572 8.0771 -0.0000
v  -7.0635 8.0771 -4.0781
v  -4.0781 8.0771 -7.0635
v  0.0000 8.0771 -8.1572
v  4.0781 8.0771 -7.0635
v  7.0635 8.0771 -4.0781
v  8.1572 8.0771 0.0000
v  7.0635 8.0771 4.0781
v  4.9854 8.9795 8.6357
v  -0.0000 8.9795 9.9717
v  -4.9854 8.9795 8.6357
v  -8.6357 8.9795 4.9854
v  -9.9717 8.9795 -0.0000
v  -8.6357 8.9795 -4.9854
v  -4.9854 8.9795 -8.6357
v  0.0000 8.9795 -9.9717
v  4.9854 8.9795 -8.6357
v  8.6357 8.9795 -4.9854
v  9.9717 8.9795 0.0000
v  8.6357 8.9795 4.9854
v  0.0000 22.2900 0.0000
v  0.0000 21.6387 7.8516
v  3.9258 21.6387 6.7998
v  6.7998 21.6387 3.9258
v  7.8516 21.6387 0.0000
v  6.7998 21.6387 -3.9258
v  3.9258 21.6387 -6.7998
v  0.0000 21.6387 -7.8516
v  -3.9258 21.6387 -6.7998
v  -6.7998 21.6387 -3.9258
v  -7.8516 21.6387 -0.0000
v  -6.7998 21.6387 3.9258
v  -3.9258 21.6387 6.7998
v  0.0000 21.1367 9.6836
v  4.8418 21.1367 8.3867
v  8.3867 21.1367 4.8418
v  9.6836 21.1367 0.0000
v  8.3867 21.1367 -4.8418
v  4.8418 21.1367 -8.3867
v  0.0000 21.1367 -9.6836
v  -4.8418 21.1367 -8.3867
v  -8.3867 21.1367 -4.8418
v  -9.6836 21.1367 -0.0000
v  -8.3867 21.1367 4.8418
v  -4.8418 21.1367 8.3867
# 153 vertices

vn 0.0001 0.3739 -0.9275
vn -0.4637 0.3741 -0.8031
vn -0.4638 0.3742 -0.8030
vn -0.8031 0.3742 -0.4636
vn -0.8031 0.3741 -0.4637
vn -0.9275 0.3739 -0.0001
vn -0.8031 0.3741 0.4637
vn -0.8030 0.3742 0.4638
vn -0.4636 0.3742 0.8031
vn -0.4637 0.3741 0.8031
vn -0.0001 0.3739 0.9275
vn 0.4637 0.3741 0.8031
vn 0.4638 0.3742 0.8030
vn 0.8031 0.3742 0.4636
vn 0.8031 0.3741 0.4637
vn 0.9275 0.3739 0.0001
vn 0.8031 0.3741 -0.4637
vn 0.8030 0.3742 -0.4638
vn 0.4636 0.3742 -0.8031
vn 0.4637 0.3741 -0.8031
vn -0.0000 0.9992 -0.0390
vn 0.0000 0.9992 -0.0390
vn -0.0195 0.9992 -0.0338
vn -0.0338 0.9992 -0.0195
vn -0.0390 0.9992 0.0000
vn -0.0338 0.9992 0.0195
vn -0.0195 0.9992 0.0338
vn 0.0000 0.9992 0.0390
vn 0.0195 0.9992 0.0338
vn 0.0338 0.9992 0.0195
vn 0.0390 0.9992 -0.0000
vn 0.0338 0.9992 -0.0195
vn 0.0195 0.9992 -0.0338
vn 0.0000 0.0000 -1.0000
vn -0.8854 0.0000 -0.4648
vn 0.8854 -0.0000 -0.4648
vn 1.0000 -0.0000 -0.0000
vn 1.0000 -0.0000 0.0000
vn 1.0000 0.0000 0.0000
vn 0.4648 0.0000 0.8854
vn 0.4648 -0.0000 0.8854
vn 0.4648 -0.0000 -0.8854
vn -0.0000 0.0000 1.0000
vn 0.8854 -0.0000 0.4648
vn -0.8854 0.0000 0.4648
vn -1.0000 -0.0000 0.0000
vn -1.0000 0.0000 -0.0000
vn -1.0000 0.0000 0.0000
vn -0.4648 0.0000 -0.8854
vn -0.4648 -0.0000 0.8854
vn -0.4648 0.0000 0.8854
vn 0.4949 0.1416 0.8573
vn 0.0000 0.1416 0.9899
vn -0.4949 0.1416 0.8573
vn -0.8573 0.1416 0.4949
vn -0.9899 0.1416 0.0000
vn -0.8573 0.1416 -0.4949
vn -0.4949 0.1416 -0.8573
vn -0.0000 0.1416 -0.9899
vn 0.4949 0.1416 -0.8573
vn 0.8573 0.1416 -0.4949
vn 0.9899 0.1416 -0.0000
vn 0.8573 0.1416 0.4949
vn 0.1353 0.9627 0.2344
vn 0.1353 0.9627 0.2343
vn -0.0000 0.9626 0.2708
vn -0.1353 0.9627 0.2344
vn -0.1353 0.9627 0.2343
vn -0.2343 0.9627 0.1353
vn -0.2344 0.9627 0.1353
vn -0.2708 0.9626 -0.0000
vn -0.2344 0.9627 -0.1353
vn -0.2343 0.9627 -0.1353
vn -0.1353 0.9627 -0.2343
vn -0.1353 0.9627 -0.2344
vn 0.0000 0.9626 -0.2708
vn 0.1353 0.9627 -0.2344
vn 0.1353 0.9627 -0.2343
vn 0.2343 0.9627 -0.1353
vn 0.2344 0.9627 -0.1353
vn 0.2708 0.9626 0.0000
vn 0.2344 0.9627 0.1353
vn 0.2343 0.9627 0.1353
vn 0.5001 -0.0000 0.8660
vn 0.2590 -0.0000 0.9659
vn -0.2590 0.0000 0.9659
vn -0.5001 0.0000 0.8660
vn -0.8660 -0.0000 0.5001
vn -0.9659 0.0000 0.2590
vn -0.9659 0.0000 -0.2590
vn -0.8660 -0.0000 -0.5001
vn -0.5001 -0.0000 -0.8660
vn -0.2590 0.0000 -0.9659
vn 0.2590 -0.0000 -0.9659
vn 0.5001 0.0000 -0.8660
vn 0.8660 0.0000 -0.5001
vn 0.9659 -0.0000 -0.2590
vn 0.9659 -0.0000 0.2590
vn 0.8660 0.0000 0.5001
vn 0.2226 -0.8955 0.3855
vn 0.0000 -0.8954 0.4453
vn -0.2226 -0.8955 0.3855
vn -0.3855 -0.8955 0.2226
vn -0.4453 -0.8954 0.0000
vn -0.3855 -0.8955 -0.2226
vn -0.2226 -0.8955 -0.3855
vn -0.0000 -0.8954 -0.4453
vn 0.2226 -0.8955 -0.3855
vn 0.3855 -0.8955 -0.2226
vn 0.4453 -0.8954 -0.0000
vn 0.3855 -0.8955 0.2226
vn 0.0000 1.0000 0.0000
vn 0.0000 0.1990 0.9800
vn 0.4900 0.1990 0.8487
vn 0.4899 0.1990 0.8487
vn 0.8487 0.1990 0.4900
vn 0.8487 0.1990 0.4899
vn 0.9800 0.1990 -0.0000
vn 0.8487 0.1990 -0.4900
vn 0.8487 0.1990 -0.4899
vn 0.4900 0.1990 -0.8487
vn 0.4899 0.1990 -0.8487
vn -0.0000 0.1990 -0.9800
vn -0.4900 0.1990 -0.8487
vn -0.4899 0.1990 -0.8487
vn -0.8487 0.1990 -0.4900
vn -0.8487 0.1990 -0.4899
vn -0.9800 0.1990 0.0000
vn -0.8487 0.1990 0.4900
vn -0.8487 0.1990 0.4899
vn -0.4900 0.1990 0.8487
vn -0.4899 0.1990 0.8487
vn -0.0000 0.9645 0.2642
vn 0.1321 0.9645 0.2288
vn 0.2288 0.9645 0.1321
vn 0.2642 0.9645 0.0000
vn 0.2288 0.9645 -0.1321
vn 0.1321 0.9645 -0.2288
vn 0.0000 0.9645 -0.2642
vn -0.1321 0.9645 -0.2288
vn -0.2288 0.9645 -0.1321
vn -0.2642 0.9645 -0.0000
vn -0.2288 0.9645 0.1321
vn -0.1321 0.9645 0.2288
vn 0.0000 0.0237 0.9997
vn 0.4999 0.0237 0.8658
vn 0.4998 0.0236 0.8658
vn 0.8658 0.0236 0.4999
vn 0.8658 0.0237 0.4998
vn 0.9997 0.0237 -0.0000
vn 0.8658 0.0237 -0.4999
vn 0.8658 0.0236 -0.4998
vn 0.4999 0.0236 -0.8658
vn 0.4998 0.0237 -0.8658
vn -0.0000 0.0237 -0.9997
vn -0.4999 0.0237 -0.8658
vn -0.4998 0.0236 -0.8658
vn -0.8658 0.0236 -0.4999
vn -0.8658 0.0237 -0.4998
vn -0.9997 0.0237 0.0000
vn -0.8658 0.0237 0.4999
vn -0.8658 0.0236 0.4998
vn -0.4999 0.0236 0.8658
vn -0.4998 0.0237 0.8658
# 164 vertex normals

vt 0.9922 0.7107 0.0000
vt 0.9236 0.7107 0.0000
vt 0.9236 0.6169 0.0000
vt 0.9922 0.6169 0.0000
vt 0.9236 0.5232 0.0000
vt 0.9922 0.5232 0.0000
vt 0.9236 0.4292 0.0000
vt 0.9922 0.4292 0.0000
vt 0.9236 0.8044 0.0000
vt 0.9922 0.8044 0.0000
vt 0.9236 0.8984 0.0000
vt 0.9922 0.8984 0.0000
vt 0.9236 0.9922 0.0000
vt 0.9922 0.9922 0.0000
vt 0.8831 0.7107 0.0000
vt 0.8831 0.6169 0.0000
vt 0.8831 0.5232 0.0000
vt 0.8831 0.4292 0.0000
vt 0.8831 0.8044 0.0000
vt 0.8831 0.8984 0.0000
vt 0.8831 0.9922 0.0000
vt 1.0122 0.3008 0.0000
vt 0.8118 0.3008 0.0000
vt 1.0122 0.3596 0.0000
vt 0.8118 0.3596 0.0000
vt 1.0122 0.2715 0.0000
vt 0.8118 0.2715 0.0000
vt 0.8118 0.3889 0.0000
vt 1.0122 0.3889 0.0000
vt 0.0081 0.4614 0.0000
vt 0.2217 0.4614 0.0000
vt 0.2217 0.5947 0.0000
vt 0.0081 0.5947 0.0000
vt 0.2217 0.7278 0.0000
vt 0.0081 0.7278 0.0000
vt 0.2217 0.8611 0.0000
vt 0.0081 0.8611 0.0000
vt 0.2217 0.9944 0.0000
vt 0.0081 0.9944 0.0000
vt 0.2217 0.3281 0.0000
vt 0.0081 0.3281 0.0000
vt 0.2217 0.1948 0.0000
vt 0.0081 0.1948 0.0000
vt 0.2849 0.4614 0.0000
vt 0.2849 0.5947 0.0000
vt 0.2849 0.7278 0.0000
vt 0.2849 0.8611 0.0000
vt 0.2849 0.9944 0.0000
vt 0.2849 0.3281 0.0000
vt 0.2849 0.1948 0.0000
vt 0.4675 0.0183 0.0000
vt 0.4675 0.1765 0.0000
vt 0.3530 0.1765 0.0000
vt 0.3530 0.0183 0.0000
vt 0.2383 0.1765 0.0000
vt 0.2383 0.0183 0.0000
vt 0.1238 0.1765 0.0000
vt 0.1238 0.0183 0.0000
vt 0.0090 0.1765 0.0000
vt 0.0090 0.0183 0.0000
vt 0.5823 0.1765 0.0000
vt 0.5823 0.0183 0.0000
vt 0.6968 0.1765 0.0000
vt 0.6968 0.0183 0.0000
vt 0.2974 0.5022 0.0000
vt 0.3577 0.5022 0.0000
vt 0.3577 0.6247 0.0000
vt 0.2974 0.6247 0.0000
vt 0.3577 0.7471 0.0000
vt 0.2974 0.7471 0.0000
vt 0.3577 0.8696 0.0000
vt 0.2974 0.8696 0.0000
vt 0.3577 0.9922 0.0000
vt 0.2974 0.9922 0.0000
vt 0.3577 0.3799 0.0000
vt 0.2974 0.3799 0.0000
vt 0.3577 0.2573 0.0000
vt 0.2974 0.2573 0.0000
vt 0.9807 0.1343 0.0000
vt 0.9648 0.1943 0.0000
vt 0.8616 0.1343 0.0000
vt 0.9211 0.2383 0.0000
vt 0.8616 0.2544 0.0000
vt 0.8020 0.2383 0.0000
vt 0.7583 0.1943 0.0000
vt 0.7422 0.1343 0.0000
vt 0.7583 0.0742 0.0000
vt 0.8020 0.0303 0.0000
vt 0.8616 0.0142 0.0000
vt 0.9211 0.0303 0.0000
vt 0.9648 0.0742 0.0000
vt 0.7896 0.7107 0.0000
vt 0.7896 0.6169 0.0000
vt 0.7896 0.5232 0.0000
vt 0.7896 0.4292 0.0000
vt 0.7896 0.8044 0.0000
vt 0.7896 0.8984 0.0000
vt 0.7896 0.9922 0.0000
vt 0.7759 0.6247 0.0000
vt 0.7268 0.6247 0.0000
vt 0.7268 0.5022 0.0000
vt 0.7759 0.5022 0.0000
vt 0.7268 0.3799 0.0000
vt 0.7759 0.3799 0.0000
vt 0.7268 0.2573 0.0000
vt 0.7759 0.2573 0.0000
vt 0.7268 0.7471 0.0000
vt 0.7759 0.7471 0.0000
vt 0.7268 0.8696 0.0000
vt 0.7759 0.8696 0.0000
vt 0.7268 0.9922 0.0000
vt 0.7759 0.9922 0.0000
# 112 texture coords

g Object01
usemtl Material__18
s 1
f 1/1/1 2/2/1 3/3/2 
f 1/1/1 3/3/2 4/4/3 
f 4/4/3 3/3/2 5/5/4 
f 4/4/3 5/5/4 6/6/5 
f 6/6/5 5/5/4 7/7/6 
f 6/6/5 7/7/6 8/8/6 
f 8/8/6 7/7/6 9/5/7 
f 8/8/6 9/5/7 10/6/8 
f 10/6/8 9/5/7 11/3/9 
f 10/6/8 11/3/9 12/4/10 
f 12/4/10 11/3/9 13/2/11 
f 12/4/10 13/2/11 14/1/11 
f 14/1/11 13/2/11 15/9/12 
f 14/1/11 15/9/12 16/10/13 
f 16/10/13 15/9/12 17/11/14 
f 16/10/13 17/11/14 18/12/15 
f 18/12/15 17/11/14 19/13/16 
f 18/12/15 19/13/16 20/14/16 
f 20/14/16 19/13/16 21/11/17 
f 20/14/16 21/11/17 22/12/18 
f 22/12/18 21/11/17 23/9/19 
f 22/12/18 23/9/19 24/10/20 
f 24/10/20 23/9/19 2/2/1 
f 24/10/20 2/2/1 1/1/1 
s 2
f 2/2/21 25/15/22 26/16/23 
f 2/2/21 26/16/23 3/3/23 
f 3/3/23 26/16/23 27/17/24 
f 3/3/23 27/17/24 5/5/24 
f 5/5/24 27/17/24 28/18/25 
f 5/5/24 28/18/25 7/7/25 
f 7/7/25 28/18/25 29/17/26 
f 7/7/25 29/17/26 9/5/26 
f 9/5/26 29/17/26 30/16/27 
f 9/5/26 30/16/27 11/3/27 
f 11/3/27 30/16/27 31/15/28 
f 11/3/27 31/15/28 13/2/28 
f 13/2/28 31/15/28 32/19/29 
f 13/2/28 32/19/29 15/9/29 
f 15/9/29 32/19/29 33/20/30 
f 15/9/29 33/20/30 17/11/30 
f 17/11/30 33/20/30 34/21/31 
f 17/11/30 34/21/31 19/13/31 
f 19/13/31 34/21/31 35/20/32 
f 19/13/31 35/20/32 21/11/32 
f 21/11/32 35/20/32 36/19/33 
f 21/11/32 36/19/33 23/9/33 
f 23/9/33 36/19/33 25/15/22 
f 23/9/33 25/15/22 2/2/21 
s 1
f 37/22/34 38/23/34 39/24/34 
f 39/24/34 38/23/34 40/25/34 
s 2
f 37/22/35 41/26/35 38/23/35 
f 38/23/35 41/26/35 42/27/35 
f 40/25/36 43/28/36 39/24/36 
f 39/24/36 43/28/36 44/29/36 
s 1
f 45/22/37 46/23/38 47/24/37 
f 47/24/37 46/23/38 48/25/39 
s 2
f 48/22/40 49/26/40 47/23/40 
f 47/23/40 49/26/40 50/27/41 
f 45/25/42 51/28/42 46/24/42 
f 46/24/42 51/28/42 52/29/42 
s 1
f 53/24/43 54/25/43 55/22/43 
f 55/22/43 54/25/43 56/23/43 
s 2
f 53/24/44 57/29/44 54/25/44 
f 54/25/44 57/29/44 58/28/44 
f 56/23/45 59/27/45 55/22/45 
f 55/22/45 59/27/45 60/26/45 
s 1
f 61/24/46 62/25/47 63/22/48 
f 63/22/48 62/25/47 64/23/47 
s 2
f 64/24/49 65/29/49 63/25/49 
f 63/25/49 65/29/49 66/28/49 
f 61/23/50 67/27/50 62/22/51 
f 62/22/51 67/27/50 68/26/51 
s 1
f 69/30/52 70/31/52 71/32/53 
f 69/30/52 71/32/53 72/33/53 
f 72/33/53 71/32/53 73/34/54 
f 72/33/53 73/34/54 74/35/54 
f 74/35/54 73/34/54 75/36/55 
f 74/35/54 75/36/55 76/37/55 
f 76/37/55 75/36/55 77/38/56 
f 76/37/55 77/38/56 78/39/56 
f 78/39/56 77/38/56 79/36/57 
f 78/39/56 79/36/57 80/37/57 
f 80/37/57 79/36/57 81/34/58 
f 80/37/57 81/34/58 82/35/58 
f 82/35/58 81/34/58 83/32/59 
f 82/35/58 83/32/59 84/33/59 
f 84/33/59 83/32/59 85/31/60 
f 84/33/59 85/31/60 86/30/60 
f 86/30/60 85/31/60 87/40/61 
f 86/30/60 87/40/61 88/41/61 
f 88/41/61 87/40/61 89/42/62 
f 88/41/61 89/42/62 90/43/62 
f 90/43/62 89/42/62 91/40/63 
f 90/43/62 91/40/63 92/41/63 
f 92/41/63 91/40/63 70/31/52 
f 92/41/63 70/31/52 69/30/52 
s 2
f 70/31/64 93/44/65 94/45/66 
f 70/31/64 94/45/66 71/32/66 
f 71/32/66 94/45/66 95/46/67 
f 71/32/66 95/46/67 73/34/68 
f 73/34/68 95/46/67 96/47/69 
f 73/34/68 96/47/69 75/36/70 
f 75/36/70 96/47/69 97/48/71 
f 75/36/70 97/48/71 77/38/71 
f 77/38/71 97/48/71 98/47/72 
f 77/38/71 98/47/72 79/36/73 
f 79/36/73 98/47/72 99/46/74 
f 79/36/73 99/46/74 81/34/75 
f 81/34/75 99/46/74 100/45/76 
f 81/34/75 100/45/76 83/32/76 
f 83/32/76 100/45/76 101/44/77 
f 83/32/76 101/44/77 85/31/78 
f 85/31/78 101/44/77 102/49/79 
f 85/31/78 102/49/79 87/40/80 
f 87/40/80 102/49/79 103/50/81 
f 87/40/80 103/50/81 89/42/81 
f 89/42/81 103/50/81 104/49/82 
f 89/42/81 104/49/82 91/40/83 
f 91/40/83 104/49/82 93/44/65 
f 91/40/83 93/44/65 70/31/64 
s 1
f 93/51/84 105/52/84 106/53/85 
f 93/51/84 106/53/85 94/54/85 
s 4
f 94/54/86 106/53/86 107/55/87 
f 94/54/86 107/55/87 95/56/87 
f 95/56/87 107/55/87 108/57/88 
f 95/56/87 108/57/88 96/58/88 
f 96/58/88 108/57/88 109/59/89 
f 96/58/88 109/59/89 97/60/89 
s 1
f 97/60/90 109/59/90 110/57/91 
f 97/60/90 110/57/91 98/58/91 
f 98/58/91 110/57/91 111/55/92 
f 98/58/91 111/55/92 99/56/92 
f 99/56/92 111/55/92 112/53/93 
f 99/56/92 112/53/93 100/54/93 
s 4
f 100/54/94 112/53/94 113/52/95 
f 100/54/94 113/52/95 101/51/95 
f 101/51/95 113/52/95 114/61/96 
f 101/51/95 114/61/96 102/62/96 
f 102/62/96 114/61/96 115/63/97 
f 102/62/96 115/63/97 103/64/97 
s 1
f 103/64/98 115/63/98 116/61/99 
f 103/64/98 116/61/99 104/62/99 
f 104/62/99 116/61/99 105/52/84 
f 104/62/99 105/52/84 93/51/84 
s 2
f 105/65/100 117/66/100 118/67/101 
f 105/65/100 118/67/101 106/68/101 
f 106/68/101 118/67/101 119/69/102 
f 106/68/101 119/69/102 107/70/102 
f 107/70/102 119/69/102 120/71/103 
f 107/70/102 120/71/103 108/72/103 
f 108/72/103 120/71/103 121/73/104 
f 108/72/103 121/73/104 109/74/104 
f 109/74/104 121/73/104 122/71/105 
f 109/74/104 122/71/105 110/72/105 
f 110/72/105 122/71/105 123/69/106 
f 110/72/105 123/69/106 111/70/106 
f 111/70/106 123/69/106 124/67/107 
f 111/70/106 124/67/107 112/68/107 
f 112/68/107 124/67/107 125/66/108 
f 112/68/107 125/66/108 113/65/108 
f 113/65/108 125/66/108 126/75/109 
f 113/65/108 126/75/109 114/76/109 
f 114/76/109 126/75/109 127/77/110 
f 114/76/109 127/77/110 115/78/110 
f 115/78/110 127/77/110 128/75/111 
f 115/78/110 128/75/111 116/76/111 
f 116/76/111 128/75/111 117/66/100 
f 116/76/111 117/66/100 105/65/100 
f 1/79/112 4/80/112 129/81/112 
f 129/81/112 4/80/112 6/82/112 
f 129/81/112 6/82/112 8/83/112 
f 129/81/112 8/83/112 10/84/112 
f 129/81/112 10/84/112 12/85/112 
f 129/81/112 12/85/112 14/86/112 
f 129/81/112 14/86/112 16/87/112 
f 129/81/112 16/87/112 18/88/112 
f 129/81/112 18/88/112 20/89/112 
f 129/81/112 20/89/112 22/90/112 
f 129/81/112 22/90/112 24/91/112 
f 129/81/112 24/91/112 1/79/112 
s 1
f 25/15/113 130/92/113 131/93/114 
f 25/15/113 131/93/114 26/16/115 
f 26/16/115 131/93/114 132/94/116 
f 26/16/115 132/94/116 27/17/117 
f 27/17/117 132/94/116 133/95/118 
f 27/17/117 133/95/118 28/18/118 
f 28/18/118 133/95/118 134/94/119 
f 28/18/118 134/94/119 29/17/120 
f 29/17/120 134/94/119 135/93/121 
f 29/17/120 135/93/121 30/16/122 
f 30/16/122 135/93/121 136/92/123 
f 30/16/122 136/92/123 31/15/123 
f 31/15/123 136/92/123 137/96/124 
f 31/15/123 137/96/124 32/19/125 
f 32/19/125 137/96/124 138/97/126 
f 32/19/125 138/97/126 33/20/127 
f 33/20/127 138/97/126 139/98/128 
f 33/20/127 139/98/128 34/21/128 
f 34/21/128 139/98/128 140/97/129 
f 34/21/128 140/97/129 35/20/130 
f 35/20/130 140/97/129 141/96/131 
f 35/20/130 141/96/131 36/19/132 
f 36/19/132 141/96/131 130/92/113 
f 36/19/132 130/92/113 25/15/113 
s 2
f 130/99/133 142/100/133 143/101/134 
f 130/99/133 143/101/134 131/102/134 
f 131/102/134 143/101/134 144/103/135 
f 131/102/134 144/103/135 132/104/135 
f 132/104/135 144/103/135 145/105/136 
f 132/104/135 145/105/136 133/106/136 
f 133/106/136 145/105/136 146/103/137 
f 133/106/136 146/103/137 134/104/137 
f 134/104/137 146/103/137 147/101/138 
f 134/104/137 147/101/138 135/102/138 
f 135/102/138 147/101/138 148/100/139 
f 135/102/138 148/100/139 136/99/139 
f 136/99/139 148/100/139 149/107/140 
f 136/99/139 149/107/140 137/108/140 
f 137/108/140 149/107/140 150/109/141 
f 137/108/140 150/109/141 138/110/141 
f 138/110/141 150/109/141 151/111/142 
f 138/110/141 151/111/142 139/112/142 
f 139/112/142 151/111/142 152/109/143 
f 139/112/142 152/109/143 140/110/143 
f 140/110/143 152/109/143 153/107/144 
f 140/110/143 153/107/144 141/108/144 
f 141/108/144 153/107/144 142/100/133 
f 141/108/144 142/100/133 130/99/133 
s 1
f 142/100/145 118/67/145 117/66/146 
f 142/100/145 117/66/146 143/101/147 
f 143/101/147 117/66/146 128/75/148 
f 143/101/147 128/75/148 144/103/149 
f 144/103/149 128/75/148 127/77/150 
f 144/103/149 127/77/150 145/105/150 
f 145/105/150 127/77/150 126/75/151 
f 145/105/150 126/75/151 146/103/152 
f 146/103/152 126/75/151 125/66/153 
f 146/103/152 125/66/153 147/101/154 
f 147/101/154 125/66/153 124/67/155 
f 147/101/154 124/67/155 148/100/155 
f 148/100/155 124/67/155 123/69/156 
f 148/100/155 123/69/156 149/107/157 
f 149/107/157 123/69/156 122/71/158 
f 149/107/157 122/71/158 150/109/159 
f 150/109/159 122/71/158 121/73/160 
f 150/109/159 121/73/160 151/111/160 
f 151/111/160 121/73/160 120/71/161 
f 151/111/160 120/71/161 152/109/162 
f 152/109/162 120/71/161 119/69/163 
f 152/109/162 119/69/163 153/107/164 
f 153/107/164 119/69/163 118/67/145 
f 153/107/164 118/67/145 142/100/145 
# 0 polygons - 252 triangles

