# 3ds Max Wavefront OBJ Exporter v0.97b - (c)2007 guruware
# File Created: 26.09.2013 02:21:23

mtllib DroneDeviceAmmo.mtl

#
# object Object01
#

v  0.0000 21.6963 5.8330
v  0.0000 24.0000 8.2490
v  4.1240 24.0000 7.1445
v  2.9160 21.6963 5.0518
v  7.1445 24.0000 4.1240
v  5.0518 21.6963 2.9160
v  8.2490 24.0000 0.0000
v  5.8330 21.6963 0.0000
v  7.1445 24.0000 -4.1240
v  5.0518 21.6963 -2.9160
v  4.1240 24.0000 -7.1445
v  2.9160 21.6963 -5.0518
v  0.0000 24.0000 -8.2490
v  0.0000 21.6963 -5.8330
v  -4.1240 24.0000 -7.1445
v  -2.9160 21.6963 -5.0518
v  -7.1445 24.0000 -4.1240
v  -5.0518 21.6963 -2.9160
v  -8.2490 24.0000 -0.0000
v  -5.8330 21.6963 -0.0000
v  -7.1445 24.0000 4.1240
v  -5.0518 21.6963 2.9160
v  -4.1240 24.0000 7.1445
v  -2.9160 21.6963 5.0518
v  0.0000 21.6963 2.9160
v  0.0000 21.6963 0.0000
v  0.0000 21.6963 -2.9160
v  -0.0000 5.6855 9.2432
v  -0.0000 3.2734 12.1387
v  6.0693 3.2734 10.5127
v  4.6211 5.6855 8.0049
v  10.5127 3.2734 6.0693
v  8.0049 5.6855 4.6211
v  12.1387 3.2734 0.0000
v  9.2432 5.6855 0.0000
v  10.5127 3.2734 -6.0693
v  8.0049 5.6855 -4.6211
v  6.0693 3.2734 -10.5127
v  4.6211 5.6855 -8.0049
v  0.0000 3.2734 -12.1387
v  0.0000 5.6855 -9.2432
v  -6.0693 3.2734 -10.5127
v  -4.6211 5.6855 -8.0049
v  -10.5127 3.2734 -6.0693
v  -8.0049 5.6855 -4.6211
v  -12.1387 3.2734 -0.0000
v  -9.2432 5.6855 -0.0000
v  -10.5127 3.2734 6.0693
v  -8.0049 5.6855 4.6211
v  -6.0693 3.2734 10.5127
v  -4.6211 5.6855 8.0049
v  -0.0000 6.7900 11.9541
v  5.9766 6.7900 10.3525
v  10.3525 6.7900 5.9766
v  11.9541 6.7900 0.0000
v  10.3525 6.7900 -5.9766
v  5.9766 6.7900 -10.3525
v  0.0000 6.7900 -11.9541
v  -5.9766 6.7900 -10.3525
v  -10.3525 6.7900 -5.9766
v  -11.9541 6.7900 -0.0000
v  -10.3525 6.7900 5.9766
v  -5.9766 6.7900 10.3525
v  -0.0000 0.0488 11.7158
v  5.8574 0.0488 10.1465
v  10.1465 0.0488 5.8574
v  11.7158 0.0488 0.0000
v  10.1465 0.0488 -5.8574
v  5.8574 0.0488 -10.1465
v  0.0000 0.0488 -11.7158
v  -5.8574 0.0488 -10.1465
v  -10.1465 0.0488 -5.8574
v  -11.7158 0.0488 -0.0000
v  -10.1465 0.0488 5.8574
v  -5.8574 0.0488 10.1465
v  0.0000 21.5830 10.1035
v  5.0518 21.5830 8.7500
v  8.7500 21.5830 5.0518
v  10.1035 21.5830 0.0000
v  8.7500 21.5830 -5.0518
v  5.0518 21.5830 -8.7500
v  0.0000 21.5830 -10.1035
v  -5.0518 21.5830 -8.7500
v  -8.7500 21.5830 -5.0518
v  -10.1035 21.5830 -0.0000
v  -8.7500 21.5830 5.0518
v  -5.0518 21.5830 8.7500
v  0.0000 16.6494 11.9951
v  5.9971 16.6494 10.3887
v  10.3887 16.6494 5.9971
v  11.9951 16.6494 0.0000
v  10.3887 16.6494 -5.9971
v  5.9971 16.6494 -10.3887
v  0.0000 16.6494 -11.9951
v  -5.9971 16.6494 -10.3887
v  -10.3887 16.6494 -5.9971
v  -11.9951 16.6494 -0.0000
v  -10.3887 16.6494 5.9971
v  -5.9971 16.6494 10.3887
v  -6.1875 12.0332 10.7178
v  -0.0000 12.0332 12.3760
v  6.1875 12.0332 10.7178
v  10.7178 12.0332 6.1875
v  12.3760 12.0332 0.0000
v  10.7178 12.0332 -6.1875
v  6.1875 12.0332 -10.7178
v  0.0000 12.0332 -12.3760
v  -6.1875 12.0332 -10.7178
v  -10.7178 12.0332 -6.1875
v  -12.3760 12.0332 -0.0000
v  -10.7178 12.0332 6.1875
# 111 vertices

vn 0.0000 0.7237 -0.6901
vn -0.3450 0.7238 -0.5976
vn -0.5976 0.7238 -0.3450
vn -0.6901 0.7237 -0.0000
vn -0.5976 0.7238 0.3450
vn -0.3450 0.7238 0.5976
vn -0.0000 0.7237 0.6901
vn 0.3450 0.7238 0.5976
vn 0.5976 0.7238 0.3450
vn 0.6901 0.7237 0.0000
vn 0.5976 0.7238 -0.3450
vn 0.3450 0.7238 -0.5976
vn 0.0000 1.0000 0.0000
vn -0.0000 0.7683 0.6400
vn 0.3200 0.7684 0.5543
vn 0.5543 0.7684 0.3200
vn 0.6400 0.7683 0.0000
vn 0.5543 0.7684 -0.3200
vn 0.3200 0.7684 -0.5543
vn 0.0000 0.7683 -0.6400
vn -0.3200 0.7684 -0.5543
vn -0.5543 0.7684 -0.3200
vn -0.6400 0.7683 -0.0000
vn -0.5543 0.7684 0.3200
vn -0.3200 0.7684 0.5543
vn -0.0000 -0.9261 0.3773
vn 0.1887 -0.9261 0.3268
vn 0.3268 -0.9261 0.1887
vn 0.3773 -0.9261 0.0000
vn 0.3268 -0.9261 -0.1887
vn 0.1887 -0.9261 -0.3268
vn 0.0000 -0.9261 -0.3773
vn -0.1887 -0.9261 -0.3268
vn -0.3268 -0.9261 -0.1887
vn -0.3773 -0.9261 -0.0000
vn -0.3268 -0.9261 0.1887
vn -0.1887 -0.9261 0.3268
vn 0.0000 -0.1300 0.9915
vn 0.4957 -0.1301 0.8587
vn 0.8587 -0.1301 0.4957
vn 0.8587 -0.1301 0.4958
vn 0.9915 -0.1300 -0.0000
vn 0.8587 -0.1301 -0.4957
vn 0.4957 -0.1301 -0.8587
vn 0.4958 -0.1301 -0.8587
vn -0.0000 -0.1300 -0.9915
vn -0.4957 -0.1301 -0.8587
vn -0.8587 -0.1301 -0.4957
vn -0.8587 -0.1301 -0.4958
vn -0.9915 -0.1300 0.0000
vn -0.8587 -0.1301 0.4957
vn -0.4957 -0.1301 0.8587
vn -0.4958 -0.1301 0.8587
vn 0.0000 0.6087 0.7934
vn 0.0000 0.4786 0.8780
vn 0.4390 0.4786 0.7604
vn 0.3966 0.6087 0.6872
vn 0.7604 0.4786 0.4390
vn 0.6871 0.6087 0.3966
vn 0.8780 0.4786 -0.0000
vn 0.7934 0.6087 -0.0000
vn 0.7604 0.4786 -0.4390
vn 0.6872 0.6087 -0.3966
vn 0.4390 0.4786 -0.7604
vn 0.3966 0.6087 -0.6871
vn -0.0000 0.4786 -0.8780
vn -0.0000 0.6087 -0.7934
vn -0.4390 0.4786 -0.7604
vn -0.3966 0.6087 -0.6872
vn -0.7604 0.4786 -0.4390
vn -0.6871 0.6087 -0.3966
vn -0.8780 0.4786 0.0000
vn -0.7934 0.6087 0.0000
vn -0.7604 0.4786 0.4390
vn -0.6872 0.6087 0.3966
vn -0.4390 0.4786 0.7604
vn -0.3966 0.6087 0.6872
vn 0.0000 0.2174 0.9761
vn 0.4880 0.2174 0.8453
vn 0.8453 0.2174 0.4880
vn 0.9761 0.2174 -0.0000
vn 0.8453 0.2174 -0.4880
vn 0.4880 0.2174 -0.8453
vn -0.0000 0.2174 -0.9761
vn -0.4880 0.2174 -0.8453
vn -0.8453 0.2174 -0.4880
vn -0.9761 0.2174 0.0000
vn -0.8453 0.2174 0.4880
vn -0.4880 0.2174 0.8453
vn -0.5000 0.0010 0.8660
vn 0.0000 0.0010 1.0000
vn -0.4984 -0.0802 0.8632
vn 0.0000 -0.0802 0.9968
vn 0.5000 0.0010 0.8660
vn 0.8660 0.0009 0.5000
vn 1.0000 0.0010 -0.0000
vn 0.8660 0.0010 -0.5000
vn 0.5000 0.0009 -0.8660
vn -0.0000 0.0010 -1.0000
vn -0.5000 0.0010 -0.8660
vn -0.8660 0.0009 -0.5000
vn -1.0000 0.0010 0.0000
vn -0.8660 0.0010 0.5000
vn -0.8632 -0.0802 0.4984
vn -0.9968 -0.0802 -0.0000
vn -0.8632 -0.0802 -0.4984
vn -0.4984 -0.0802 -0.8632
vn 0.0000 -0.0802 -0.9968
vn 0.4984 -0.0802 -0.8632
vn 0.8632 -0.0802 -0.4984
vn 0.9968 -0.0802 0.0000
vn 0.8632 -0.0802 0.4984
vn 0.4984 -0.0802 0.8632
# 113 vertex normals

vt -0.9739 0.9646 0.0000
vt -0.9739 0.8701 0.0000
vt -0.7227 0.8701 0.0000
vt -0.7227 0.9646 0.0000
vt -0.4724 0.8701 0.0000
vt -0.4724 0.9646 0.0000
vt -0.2170 0.8701 0.0000
vt -0.2170 0.9646 0.0000
vt -0.4722 0.8701 0.0000
vt -0.4722 0.9646 0.0000
vt -0.0400 0.7371 0.0000
vt -0.0320 0.8616 0.0000
vt -0.0625 0.9746 0.0000
vt -0.1189 0.8967 0.0000
vt -0.1750 0.8191 0.0000
vt -0.0842 0.6345 0.0000
vt -0.1692 0.2793 0.0000
vt -0.1692 0.1689 0.0000
vt -0.0454 0.1689 0.0000
vt -0.0454 0.2793 0.0000
vt -0.0452 0.1689 0.0000
vt -0.0452 0.2793 0.0000
vt -0.9739 0.1030 0.0000
vt -0.9739 0.0212 0.0000
vt -0.7227 0.0212 0.0000
vt -0.7227 0.1030 0.0000
vt -0.4724 0.0212 0.0000
vt -0.4724 0.1030 0.0000
vt -0.2170 0.0212 0.0000
vt -0.2170 0.1030 0.0000
vt -0.4722 0.0212 0.0000
vt -0.4722 0.1030 0.0000
vt -0.1692 0.0212 0.0000
vt -0.0454 0.0212 0.0000
vt -0.0452 0.0212 0.0000
vt -0.9739 0.7388 0.0000
vt -0.7227 0.7388 0.0000
vt -0.4724 0.7388 0.0000
vt -0.2170 0.7388 0.0000
vt -0.4722 0.7388 0.0000
vt -0.9739 0.5049 0.0000
vt -0.7227 0.5049 0.0000
vt -0.4724 0.5049 0.0000
vt -0.2170 0.5049 0.0000
vt -0.4722 0.5049 0.0000
vt -0.7227 0.3167 0.0000
vt -0.9739 0.3167 0.0000
vt -0.4724 0.3167 0.0000
vt -0.2170 0.3167 0.0000
vt -0.4722 0.3167 0.0000
# 50 texture coords

g Object01
usemtl Material__11
s 1
f 1/1/1 2/2/1 3/3/2 
f 1/1/1 3/3/2 4/4/2 
f 4/4/2 3/3/2 5/5/3 
f 4/4/2 5/5/3 6/6/3 
f 6/6/3 5/5/3 7/7/4 
f 6/6/3 7/7/4 8/8/4 
f 8/8/4 7/7/4 9/5/5 
f 8/8/4 9/5/5 10/6/5 
f 10/6/5 9/5/5 11/3/6 
f 10/6/5 11/3/6 12/4/6 
f 12/4/6 11/3/6 13/2/7 
f 12/4/6 13/2/7 14/1/7 
f 14/1/7 13/2/7 15/3/8 
f 14/1/7 15/3/8 16/4/8 
f 16/4/8 15/3/8 17/9/9 
f 16/4/8 17/9/9 18/10/9 
f 18/10/9 17/9/9 19/7/10 
f 18/10/9 19/7/10 20/8/10 
f 20/8/10 19/7/10 21/9/11 
f 20/8/10 21/9/11 22/10/11 
f 22/10/11 21/9/11 23/3/12 
f 22/10/11 23/3/12 24/4/12 
f 24/4/12 23/3/12 2/2/1 
f 24/4/12 2/2/1 1/1/1 
s 2
f 22/11/13 24/12/13 1/13/13 
f 22/11/13 1/13/13 25/14/13 
f 25/14/13 1/13/13 4/12/13 
f 25/14/13 4/12/13 6/11/13 
f 25/14/13 6/11/13 26/15/13 
f 25/14/13 26/15/13 22/11/13 
f 22/11/13 26/15/13 20/16/13 
f 20/16/13 26/15/13 27/14/13 
f 20/16/13 27/14/13 18/11/13 
f 18/11/13 27/14/13 16/12/13 
f 16/12/13 27/14/13 14/13/13 
f 14/13/13 27/14/13 12/12/13 
f 12/12/13 27/14/13 10/11/13 
f 10/11/13 27/14/13 26/15/13 
f 10/11/13 26/15/13 8/16/13 
f 8/16/13 26/15/13 6/11/13 
s 1
f 28/17/14 29/18/14 30/19/15 
f 28/17/14 30/19/15 31/20/15 
f 31/20/15 30/19/15 32/18/16 
f 31/20/15 32/18/16 33/17/16 
f 33/17/16 32/18/16 34/21/17 
f 33/17/16 34/21/17 35/22/17 
f 35/22/17 34/21/17 36/18/18 
f 35/22/17 36/18/18 37/17/18 
f 37/17/18 36/18/18 38/19/19 
f 37/17/18 38/19/19 39/20/19 
f 39/20/19 38/19/19 40/18/20 
f 39/20/19 40/18/20 41/17/20 
f 41/17/20 40/18/20 42/19/21 
f 41/17/20 42/19/21 43/20/21 
f 43/20/21 42/19/21 44/18/22 
f 43/20/21 44/18/22 45/17/22 
f 45/17/22 44/18/22 46/21/23 
f 45/17/22 46/21/23 47/22/23 
f 47/22/23 46/21/23 48/18/24 
f 47/22/23 48/18/24 49/17/24 
f 49/17/24 48/18/24 50/19/25 
f 49/17/24 50/19/25 51/20/25 
f 51/20/25 50/19/25 29/18/14 
f 51/20/25 29/18/14 28/17/14 
s 2
f 52/23/26 28/24/26 31/25/27 
f 52/23/26 31/25/27 53/26/27 
f 53/26/27 31/25/27 33/27/28 
f 53/26/27 33/27/28 54/28/28 
f 54/28/28 33/27/28 35/29/29 
f 54/28/28 35/29/29 55/30/29 
f 55/30/29 35/29/29 37/27/30 
f 55/30/29 37/27/30 56/28/30 
f 56/28/30 37/27/30 39/25/31 
f 56/28/30 39/25/31 57/26/31 
f 57/26/31 39/25/31 41/24/32 
f 57/26/31 41/24/32 58/23/32 
f 58/23/32 41/24/32 43/25/33 
f 58/23/32 43/25/33 59/26/33 
f 59/26/33 43/25/33 45/31/34 
f 59/26/33 45/31/34 60/32/34 
f 60/32/34 45/31/34 47/29/35 
f 60/32/34 47/29/35 61/30/35 
f 61/30/35 47/29/35 49/31/36 
f 61/30/35 49/31/36 62/32/36 
f 62/32/36 49/31/36 51/25/37 
f 62/32/36 51/25/37 63/26/37 
f 63/26/37 51/25/37 28/24/26 
f 63/26/37 28/24/26 52/23/26 
f 29/18/38 64/33/38 65/34/39 
f 29/18/38 65/34/39 30/19/39 
f 30/19/39 65/34/39 66/33/40 
f 30/19/39 66/33/40 32/18/41 
f 32/18/41 66/33/40 67/35/42 
f 32/18/41 67/35/42 34/21/42 
f 34/21/42 67/35/42 68/33/43 
f 34/21/42 68/33/43 36/18/43 
f 36/18/43 68/33/43 69/34/44 
f 36/18/43 69/34/44 38/19/45 
f 38/19/45 69/34/44 70/33/46 
f 38/19/45 70/33/46 40/18/46 
f 40/18/46 70/33/46 71/34/47 
f 40/18/46 71/34/47 42/19/47 
f 42/19/47 71/34/47 72/33/48 
f 42/19/47 72/33/48 44/18/49 
f 44/18/49 72/33/48 73/35/50 
f 44/18/49 73/35/50 46/21/50 
f 46/21/50 73/35/50 74/33/51 
f 46/21/50 74/33/51 48/18/51 
f 48/18/51 74/33/51 75/34/52 
f 48/18/51 75/34/52 50/19/53 
f 50/19/53 75/34/52 64/33/38 
f 50/19/53 64/33/38 29/18/38 
s 154
f 2/2/54 76/36/55 77/37/56 
f 2/2/54 77/37/56 3/3/57 
s 280
f 3/3/57 77/37/56 78/38/58 
s 282
f 3/3/57 78/38/58 5/5/59 
s 562
f 5/5/59 78/38/58 79/39/60 
s 554
f 5/5/59 79/39/60 7/7/61 
s 232
f 7/7/61 79/39/60 80/38/62 
s 202
f 7/7/61 80/38/62 9/5/63 
s 338
f 9/5/63 80/38/62 81/37/64 
s 282
f 9/5/63 81/37/64 11/3/65 
s 568
f 11/3/65 81/37/64 82/36/66 
s 554
f 11/3/65 82/36/66 13/2/67 
s 226
f 13/2/67 82/36/66 83/37/68 
s 202
f 13/2/67 83/37/68 15/3/69 
s 344
f 15/3/69 83/37/68 84/40/70 
s 282
f 15/3/69 84/40/70 17/9/71 
s 562
f 17/9/71 84/40/70 85/39/72 
s 554
f 17/9/71 85/39/72 19/7/73 
s 232
f 19/7/73 85/39/72 86/40/74 
s 202
f 19/7/73 86/40/74 21/9/75 
s 338
f 21/9/75 86/40/74 87/37/76 
s 274
f 21/9/75 87/37/76 23/3/77 
s 560
f 23/3/77 87/37/76 2/2/54 
f 2/2/54 87/37/76 76/36/55 
s 929
f 76/36/55 87/37/76 88/41/78 
s 960
f 76/36/55 88/41/78 77/37/56 
f 77/37/56 88/41/78 89/42/79 
s 1792
f 77/37/56 89/42/79 78/38/58 
f 78/38/58 89/42/79 90/43/80 
s 641
f 78/38/58 90/43/80 79/39/60 
f 79/39/60 90/43/80 91/44/81 
s 448
f 79/39/60 91/44/81 80/38/62 
f 80/38/62 91/44/81 92/43/82 
s 784
f 80/38/62 92/43/82 81/37/64 
f 81/37/64 92/43/82 93/42/83 
s 641
f 81/37/64 93/42/83 82/36/66 
f 82/36/66 93/42/83 94/41/84 
s 448
f 82/36/66 94/41/84 83/37/68 
f 83/37/68 94/41/84 95/42/85 
s 784
f 83/37/68 95/42/85 84/40/70 
f 84/40/70 95/42/85 96/45/86 
s 641
f 84/40/70 96/45/86 85/39/72 
f 85/39/72 96/45/86 97/44/87 
s 448
f 85/39/72 97/44/87 86/40/74 
f 86/40/74 97/44/87 98/45/88 
s 1792
f 86/40/74 98/45/88 87/37/76 
s 1824
f 87/37/76 98/45/88 99/42/89 
s 513
f 87/37/76 99/42/89 88/41/78 
s 1129
f 88/41/78 99/42/89 100/46/90 
s 105
f 88/41/78 100/46/90 101/47/91 
s 2076
f 101/47/91 100/46/90 63/26/92 
s 6172
f 101/47/91 63/26/92 52/23/93 
s 6232
f 101/47/91 52/23/93 102/46/94 
s 5184
f 101/47/91 102/46/94 88/41/78 
f 88/41/78 102/46/94 89/42/79 
s 3081
f 89/42/79 102/46/94 103/48/95 
s 3073
f 89/42/79 103/48/95 90/43/80 
s 197
f 90/43/80 103/48/95 104/49/96 
s 193
f 90/43/80 104/49/96 91/44/81 
s 120
f 91/44/81 104/49/96 105/48/97 
s 112
f 91/44/81 105/48/97 92/43/82 
s 533
f 92/43/82 105/48/97 106/46/98 
s 529
f 92/43/82 106/46/98 93/42/83 
s 201
f 93/42/83 106/46/98 107/47/99 
s 193
f 93/42/83 107/47/99 94/41/84 
s 116
f 94/41/84 107/47/99 108/46/100 
s 112
f 94/41/84 108/46/100 95/42/85 
s 537
f 95/42/85 108/46/100 109/50/101 
s 529
f 95/42/85 109/50/101 96/45/86 
s 197
f 96/45/86 109/50/101 110/49/102 
s 193
f 96/45/86 110/49/102 97/44/87 
s 1144
f 97/44/87 110/49/102 111/50/103 
s 1136
f 97/44/87 111/50/103 98/45/88 
s 3108
f 98/45/88 111/50/103 99/42/89 
s 2084
f 99/42/89 111/50/103 100/46/90 
s 2068
f 100/46/90 111/50/103 63/26/92 
s 28
f 63/26/92 111/50/103 62/32/104 
s 152
f 62/32/104 111/50/103 110/49/102 
s 140
f 62/32/104 110/49/102 61/30/105 
s 644
f 61/30/105 110/49/102 109/50/101 
s 524
f 61/30/105 109/50/101 60/32/106 
s 552
f 60/32/106 109/50/101 108/46/100 
s 44
f 60/32/106 108/46/100 59/26/107 
s 164
f 59/26/107 108/46/100 107/47/99 
s 140
f 59/26/107 107/47/99 58/23/108 
s 648
f 58/23/108 107/47/99 106/46/98 
s 524
f 58/23/108 106/46/98 57/26/109 
s 548
f 57/26/109 106/46/98 105/48/97 
s 44
f 57/26/109 105/48/97 56/28/110 
s 168
f 56/28/110 105/48/97 104/49/96 
s 140
f 56/28/110 104/49/96 55/30/111 
s 2180
f 55/30/111 104/49/96 103/48/95 
s 2060
f 55/30/111 103/48/95 54/28/112 
s 6152
f 54/28/112 103/48/95 102/46/94 
s 4104
f 54/28/112 102/46/94 53/26/113 
s 4096
f 53/26/113 102/46/94 52/23/93 
# 0 polygons - 208 triangles

