# 3ds Max Wavefront OBJ Exporter v0.97b - (c)2007 guruware
# File Created: 26.09.2013 02:54:34

mtllib AmmoCrate.mtl

#
# object Object01
#

v  -9.0000 21.0000 12.0000
v  -9.0000 3.0000 12.0000
v  -9.0215 21.0000 10.5830
v  -9.0215 3.0000 10.5830
v  12.0000 3.0000 9.0000
v  12.0000 3.0000 -9.0000
v  10.5771 2.9990 8.9990
v  10.5518 3.0000 -9.0215
v  -12.0000 24.0000 -9.0000
v  -9.0000 24.0000 -12.0000
v  -9.0000 21.0000 -12.0000
v  -12.0000 21.0000 -9.0000
v  -9.0000 3.0000 -12.0000
v  -12.0000 3.0000 -9.0000
v  -9.0000 0.0000 -12.0000
v  -12.0000 0.0000 -9.0000
v  -9.0000 24.0000 12.0000
v  -12.0000 24.0000 9.0000
v  -12.0000 21.0000 9.0000
v  -12.0000 3.0000 9.0000
v  -12.0000 0.0000 9.0000
v  -9.0000 0.0000 12.0000
v  -9.0000 0.0000 9.0000
v  8.9990 -0.0000 9.0000
v  8.9990 -0.0000 12.0000
v  11.9990 -0.0000 9.0000
v  8.9990 -0.0000 -9.0000
v  11.9990 -0.0000 -9.0000
v  8.9990 -0.0000 -12.0000
v  -9.0000 0.0000 -9.0000
v  11.9990 24.0000 9.0000
v  11.9990 24.0000 -9.0000
v  8.9990 24.0000 9.0000
v  8.9990 24.0000 12.0000
v  -9.0000 24.0000 9.0000
v  -9.0000 24.0000 -9.0000
v  8.9990 24.0000 -9.0000
v  8.9990 24.0000 -12.0000
v  8.9990 3.0000 -12.0000
v  8.9990 3.0000 -10.6045
v  -9.0215 3.0000 -10.5791
v  8.9990 21.0000 -12.0000
v  8.9990 21.0000 -10.6045
v  -9.0215 21.0000 -10.5791
v  8.9990 21.0000 12.0000
v  9.0215 21.0000 10.5830
v  8.9990 3.0000 12.0000
v  9.0215 2.9990 10.5830
v  -10.5771 21.0000 -9.0000
v  -10.5771 3.0000 -9.0000
v  -10.5771 21.0000 9.0000
v  -10.5771 3.0000 9.0000
v  12.0000 21.0000 -9.0000
v  10.5518 21.0000 -9.0215
v  12.0000 21.0000 9.0000
v  10.5771 21.0000 8.9990
# 56 vertices

vn 0.9999 -0.0000 -0.0152
vn -0.0007 1.0000 -0.0000
vn -0.0000 1.0000 0.0001
vn -0.7071 0.0000 -0.7071
vn -0.7071 -0.0000 -0.7071
vn -0.7071 0.0000 0.7071
vn -0.7071 -0.0000 0.7071
vn -0.0000 -1.0000 0.0000
vn -0.0000 -1.0000 -0.0000
vn 0.0000 -1.0000 0.0000
vn 0.0000 -1.0000 -0.0000
vn 0.0000 1.0000 0.0000
vn -1.0000 0.0000 -0.0000
vn 0.9999 -0.0000 0.0151
vn -0.9999 0.0000 -0.0158
vn 0.0000 1.0000 -0.0000
vn 0.0001 1.0000 -0.0007
vn -0.0000 0.0000 1.0000
vn 0.0000 -0.0000 1.0000
vn -0.0000 -0.0000 -1.0000
vn 0.0000 -0.0000 -1.0000
vn -0.0148 0.0000 0.9999
vn 0.0007 -0.0000 -1.0000
vn 0.0000 0.0000 -1.0000
vn -0.0014 0.0000 -1.0000
vn -0.0000 -0.0000 1.0000
vn -1.0000 -0.0000 -0.0000
vn 1.0000 -0.0003 0.0000
vn 1.0000 -0.0000 -0.0014
vn 1.0000 0.0003 0.0000
vn 0.7071 0.0002 -0.7071
vn 0.7070 -0.0000 -0.7072
vn 0.7070 -0.0002 -0.7072
vn 0.7071 -0.0000 -0.7071
vn 0.7071 -0.0002 0.7071
vn 0.7070 0.0000 0.7072
vn 0.7070 -0.0000 0.7072
vn 0.7070 0.0002 0.7072
vn 0.7071 -0.0000 0.7071
# 39 vertex normals

vt 0.1628 0.6843 0.0000
vt 0.8564 0.6843 0.0000
vt 0.1995 0.7109 0.0000
vt 0.8196 0.7109 0.0000
vt 0.8562 0.6841 0.0000
vt 0.8562 0.9829 0.0000
vt 0.8196 0.7102 0.0000
vt 0.8196 0.9570 0.0000
vt 0.9788 0.6663 0.0000
vt 0.8391 0.6663 0.0000
vt 0.8391 0.5852 0.0000
vt 0.9788 0.5852 0.0000
vt 0.8391 0.0981 0.0000
vt 0.9788 0.0981 0.0000
vt 0.8391 0.0168 0.0000
vt 0.9788 0.0168 0.0000
vt 0.0242 0.5847 0.0000
vt 0.0242 0.0974 0.0000
vt 0.1228 0.5847 0.0000
vt 0.1228 0.6658 0.0000
vt 0.7151 0.5847 0.0000
vt 0.7151 0.6658 0.0000
vt 0.8137 0.5847 0.0000
vt 0.7151 0.0974 0.0000
vt 0.8137 0.0974 0.0000
vt 0.7151 0.0164 0.0000
vt 0.1228 0.0974 0.0000
vt 0.1228 0.0164 0.0000
vt 0.8193 0.7112 0.0000
vt 0.8193 0.9563 0.0000
vt 0.1624 0.6841 0.0000
vt 0.1992 0.7112 0.0000
vt 0.1624 0.9829 0.0000
vt 0.1992 0.9563 0.0000
vt 0.1628 0.9832 0.0000
vt 0.1995 0.9565 0.0000
vt 0.8564 0.9832 0.0000
vt 0.8196 0.9565 0.0000
vt 0.2000 0.7107 0.0000
vt 0.8198 0.7104 0.0000
vt 0.2000 0.9570 0.0000
vt 0.8201 0.9568 0.0000
vt 0.1997 0.9573 0.0000
vt 0.1997 0.7104 0.0000
vt 0.0469 0.9829 0.0000
vt 0.0469 0.6841 0.0000
vt 0.9717 0.9829 0.0000
vt 0.9717 0.6841 0.0000
vt 0.0471 0.6843 0.0000
vt 0.0471 0.9832 0.0000
vt 0.9722 0.6843 0.0000
vt 0.9722 0.9832 0.0000
# 52 texture coords

g Object01
usemtl Material__25
s off
f 1/1/1 2/2/1 3/3/1 
f 3/3/1 2/2/1 4/4/1 
f 5/5/2 6/6/2 7/7/2 
f 7/7/3 6/6/3 8/8/3 
f 9/9/4 10/10/4 11/11/4 
f 9/9/4 11/11/4 12/12/4 
f 12/12/4 11/11/4 13/13/4 
f 12/12/4 13/13/4 14/14/4 
f 14/14/5 13/13/5 15/15/5 
f 14/14/5 15/15/5 16/16/5 
f 17/9/6 18/10/6 19/11/6 
f 17/9/7 19/11/7 1/12/7 
f 1/12/6 19/11/6 20/13/6 
f 1/12/6 20/13/6 2/14/6 
f 2/14/7 20/13/7 21/15/7 
f 2/14/7 21/15/7 22/16/7 
f 21/17/8 16/18/8 23/19/8 
f 21/17/9 23/19/9 22/20/9 
f 22/20/9 23/19/9 24/21/9 
f 22/20/8 24/21/8 25/22/8 
f 25/22/10 24/21/10 26/23/10 
f 26/23/10 24/21/10 27/24/10 
f 26/23/10 27/24/10 28/25/10 
f 28/25/11 27/24/11 29/26/11 
f 29/26/9 27/24/9 30/27/9 
f 29/26/8 30/27/8 15/28/8 
f 15/28/8 30/27/8 16/18/8 
f 16/18/9 30/27/9 23/19/9 
f 23/19/9 30/27/9 27/24/9 
f 23/19/9 27/24/9 24/21/9 
f 31/17/12 32/18/12 33/19/12 
f 31/17/12 33/19/12 34/20/12 
f 34/20/12 33/19/12 35/21/12 
f 34/20/12 35/21/12 17/22/12 
f 17/22/12 35/21/12 18/23/12 
f 18/23/12 35/21/12 36/24/12 
f 18/23/12 36/24/12 9/25/12 
f 9/25/12 36/24/12 10/26/12 
f 10/26/12 36/24/12 37/27/12 
f 10/26/12 37/27/12 38/28/12 
f 38/28/12 37/27/12 32/18/12 
f 32/18/12 37/27/12 33/19/12 
f 33/19/12 37/27/12 36/24/12 
f 33/19/12 36/24/12 35/21/12 
f 39/5/12 13/6/12 40/29/12 
f 40/29/12 13/6/12 41/30/12 
f 42/31/13 39/5/13 43/32/13 
f 43/32/13 39/5/13 40/29/13 
f 11/33/9 42/31/9 44/34/9 
f 44/34/10 42/31/10 43/32/10 
f 13/6/14 11/33/14 41/30/14 
f 41/30/14 11/33/14 44/34/14 
f 45/35/8 1/1/8 46/36/8 
f 46/36/9 1/1/9 3/3/9 
f 47/37/15 45/35/15 48/38/15 
f 48/38/15 45/35/15 46/36/15 
f 2/2/16 47/37/16 4/4/16 
f 4/4/17 47/37/17 48/38/17 
f 12/1/18 14/2/18 49/39/18 
f 49/39/19 14/2/19 50/40/19 
f 19/35/9 12/1/9 51/41/9 
f 51/41/9 12/1/9 49/39/9 
f 20/37/20 19/35/20 52/42/20 
f 52/42/21 19/35/21 51/41/21 
f 14/2/12 20/37/12 50/40/12 
f 50/40/12 20/37/12 52/42/12 
f 6/6/22 53/33/22 8/8/22 
f 8/8/22 53/33/22 54/43/22 
f 55/31/23 5/5/23 56/44/23 
f 56/44/23 5/5/23 7/7/23 
f 53/33/9 55/31/9 54/43/9 
f 54/43/9 55/31/9 56/44/9 
f 11/33/24 10/45/24 42/31/24 
f 42/31/24 10/45/24 38/46/24 
f 41/30/25 44/34/25 40/29/25 
f 40/29/25 44/34/25 43/32/25 
f 15/47/24 13/6/24 29/48/24 
f 29/48/21 13/6/21 39/5/21 
f 17/49/18 1/1/18 34/50/18 
f 34/50/26 1/1/26 45/35/26 
f 4/4/26 48/38/26 3/3/26 
f 3/3/26 48/38/26 46/36/26 
f 2/2/18 22/51/18 47/37/18 
f 47/37/18 22/51/18 25/52/18 
f 12/1/13 19/35/13 9/49/13 
f 9/49/13 19/35/13 18/50/13 
f 50/40/13 52/42/13 49/39/13 
f 49/39/13 52/42/13 51/41/13 
f 16/51/27 21/52/27 14/2/27 
f 14/2/13 21/52/13 20/37/13 
f 6/6/28 5/5/28 28/47/28 
f 28/47/28 5/5/28 26/48/28 
f 54/43/29 56/44/29 8/8/29 
f 8/8/29 56/44/29 7/7/29 
f 32/45/30 31/46/30 53/33/30 
f 53/33/30 31/46/30 55/31/30 
f 38/9/31 32/10/31 53/11/31 
f 38/9/32 53/11/32 42/12/32 
f 42/12/32 53/11/32 6/13/32 
f 42/12/32 6/13/32 39/14/32 
f 39/14/33 6/13/33 28/15/33 
f 39/14/34 28/15/34 29/16/34 
f 25/15/35 26/16/35 5/14/35 
f 25/15/36 5/14/36 47/13/36 
f 47/13/37 5/14/37 55/12/37 
f 47/13/37 55/12/37 45/11/37 
f 45/11/38 55/12/38 31/9/38 
f 45/11/39 31/9/39 34/10/39 
# 0 polygons - 108 triangles

