# 3ds Max Wavefront OBJ Exporter v0.97b - (c)2007 guruware
# File Created: 26.09.2013 02:39:45

mtllib VisibombGunAmmo.mtl

#
# object Object01
#

v  -8.4619 5.5537 -0.0000
v  -8.2012 2.4629 -0.4902
v  -11.0527 5.3340 -0.0000
v  -11.0527 2.4629 -0.4902
v  -8.6016 15.7607 -0.0000
v  -8.6016 10.4795 -0.4902
v  -13.0117 13.3506 -0.0000
v  -13.0117 10.4795 -0.4902
v  8.4619 5.5537 0.0000
v  8.2012 2.4629 0.4902
v  11.0527 5.3340 0.0000
v  11.0527 2.4629 0.4902
v  8.6016 15.7607 0.0000
v  8.6016 10.4795 0.4902
v  13.0117 13.3506 0.0000
v  13.0117 10.4795 0.4902
v  0.0000 22.2090 2.8779
v  0.0000 21.2139 2.8779
v  1.4385 21.2139 2.4922
v  1.4385 22.2090 2.4922
v  2.4922 21.2139 1.4385
v  2.4922 22.2090 1.4385
v  2.8779 21.2139 0.0000
v  2.8779 22.2090 0.0000
v  2.4922 21.2139 -1.4385
v  2.4922 22.2090 -1.4385
v  1.4385 21.2139 -2.4922
v  1.4385 22.2090 -2.4922
v  0.0000 21.2139 -2.8779
v  0.0000 22.2090 -2.8779
v  -1.4385 21.2139 -2.4922
v  -1.4385 22.2090 -2.4922
v  -2.4922 21.2139 -1.4385
v  -2.4922 22.2090 -1.4385
v  -2.8779 21.2139 -0.0000
v  -2.8779 22.2090 -0.0000
v  -2.4922 21.2139 1.4385
v  -2.4922 22.2090 1.4385
v  -1.4385 21.2139 2.4922
v  -1.4385 22.2090 2.4922
v  4.1436 2.5449 7.1768
v  4.4678 10.0410 7.7383
v  0.0000 10.0410 8.9355
v  -0.0000 2.5449 8.2871
v  -4.4678 10.0410 7.7383
v  -4.1436 2.5449 7.1768
v  -7.7383 10.0410 4.4678
v  -7.1768 2.5449 4.1436
v  -8.9355 10.0410 -0.0000
v  -8.2871 2.5449 -0.0000
v  -7.7383 10.0410 -4.4678
v  -7.1768 2.5449 -4.1436
v  -4.4678 10.0410 -7.7383
v  -4.1436 2.5449 -7.1768
v  0.0000 10.0410 -8.9355
v  0.0000 2.5449 -8.2871
v  4.4678 10.0410 -7.7383
v  4.1436 2.5449 -7.1768
v  7.7383 10.0410 -4.4678
v  7.1768 2.5449 -4.1436
v  8.9355 10.0410 0.0000
v  8.2871 2.5449 0.0000
v  7.7383 10.0410 4.4678
v  7.1768 2.5449 4.1436
v  4.3994 16.0039 7.6201
v  0.0000 16.0039 8.7988
v  -4.3994 16.0039 7.6201
v  -7.6201 16.0039 4.3994
v  -8.7988 16.0039 -0.0000
v  -7.6201 16.0039 -4.3994
v  -4.3994 16.0039 -7.6201
v  0.0000 16.0039 -8.7988
v  4.3994 16.0039 -7.6201
v  7.6201 16.0039 -4.3994
v  8.7988 16.0039 0.0000
v  7.6201 16.0039 4.3994
v  3.7871 18.3047 6.5605
v  0.0000 18.3047 7.5752
v  -3.7871 18.3047 6.5605
v  -6.5605 18.3047 3.7871
v  -7.5752 18.3047 -0.0000
v  -6.5605 18.3047 -3.7871
v  -3.7871 18.3047 -6.5605
v  0.0000 18.3047 -7.5752
v  3.7871 18.3047 -6.5605
v  6.5605 18.3047 -3.7871
v  7.5752 18.3047 0.0000
v  6.5605 18.3047 3.7871
v  4.3281 20.3496 2.4990
v  2.4990 20.3496 4.3281
v  0.0000 20.3496 4.9980
v  -2.4990 20.3496 4.3281
v  -4.3281 20.3496 2.4990
v  -4.9980 20.3496 -0.0000
v  -4.3281 20.3496 -2.4990
v  -2.4990 20.3496 -4.3281
v  0.0000 20.3496 -4.9980
v  2.4990 20.3496 -4.3281
v  4.3281 20.3496 -2.4990
v  4.9980 20.3496 0.0000
v  0.0000 24.0000 -0.5967
v  0.0000 22.2090 -0.4551
v  -0.4551 22.2090 -0.0000
v  -0.5967 24.0000 -0.0000
v  0.0000 22.2090 0.4551
v  0.0000 24.0000 0.5967
v  0.4551 22.2090 0.0000
v  0.5967 24.0000 0.0000
v  3.5566 -0.0000 6.1602
v  3.6787 2.7607 6.3730
v  -0.0000 2.7607 7.3584
v  -0.0000 0.0000 7.1133
v  -3.6787 2.7607 6.3730
v  -3.5566 0.0000 6.1602
v  -6.3730 2.7607 3.6787
v  -6.1602 0.0000 3.5566
v  -7.3584 2.7607 -0.0000
v  -7.1133 0.0000 -0.0000
v  -6.3730 2.7607 -3.6787
v  -6.1602 0.0000 -3.5566
v  -3.6787 2.7607 -6.3730
v  -3.5566 0.0000 -6.1602
v  0.0000 2.7607 -7.3584
v  0.0000 0.0000 -7.1133
v  3.6787 2.7607 -6.3730
v  3.5566 -0.0000 -6.1602
v  6.3730 2.7607 -3.6787
v  6.1602 -0.0000 -3.5566
v  7.3584 2.7607 0.0000
v  7.1133 -0.0000 0.0000
v  6.3730 2.7607 3.6787
v  6.1602 -0.0000 3.5566
v  -11.0527 2.4629 0.4902
v  -8.2012 2.4629 0.4902
v  -8.6016 10.4795 0.4902
v  -13.0117 10.4795 0.4902
v  8.2012 2.4629 -0.4902
v  11.0527 2.4629 -0.4902
v  8.6016 10.4795 -0.4902
v  13.0117 10.4795 -0.4902
# 140 vertices

vn -0.0132 0.1556 -0.9877
vn -0.0061 0.1624 -0.9867
vn -0.0070 0.1615 -0.9868
vn -0.0000 0.1683 -0.9857
vn -0.0504 0.0923 -0.9945
vn -0.0318 0.1206 -0.9922
vn -0.0264 0.1287 -0.9913
vn 0.0132 0.1556 0.9877
vn 0.0061 0.1624 0.9867
vn 0.0070 0.1615 0.9868
vn 0.0000 0.1683 0.9857
vn 0.0504 0.0923 0.9945
vn 0.0318 0.1206 0.9922
vn 0.0264 0.1287 0.9913
vn -0.0000 0.0000 1.0000
vn 0.0000 -0.0000 1.0000
vn 0.5001 -0.0000 0.8660
vn 0.8660 -0.0000 0.5001
vn 1.0000 -0.0000 0.0000
vn 0.8660 0.0000 -0.5001
vn 0.5001 -0.0000 -0.8660
vn 0.0000 0.0000 -1.0000
vn -0.0000 -0.0000 -1.0000
vn -0.5001 0.0000 -0.8660
vn -0.8660 -0.0000 -0.5001
vn -1.0000 0.0000 -0.0000
vn -1.0000 0.0000 0.0000
vn -0.8660 0.0000 0.5001
vn -0.5001 0.0000 0.8660
vn 0.4981 -0.0862 0.8628
vn 0.4998 -0.0314 0.8656
vn -0.0000 -0.0314 0.9995
vn -0.0000 -0.0862 0.9963
vn -0.4998 -0.0314 0.8656
vn -0.4981 -0.0862 0.8628
vn -0.8656 -0.0314 0.4998
vn -0.8628 -0.0862 0.4981
vn -0.9995 -0.0314 -0.0000
vn -0.9963 -0.0862 -0.0000
vn -0.8656 -0.0314 -0.4998
vn -0.8628 -0.0862 -0.4981
vn -0.4998 -0.0314 -0.8656
vn -0.4981 -0.0862 -0.8628
vn 0.0000 -0.0314 -0.9995
vn 0.0000 -0.0862 -0.9963
vn 0.4998 -0.0314 -0.8656
vn 0.4981 -0.0862 -0.8628
vn 0.8656 -0.0314 -0.4998
vn 0.8628 -0.0862 -0.4981
vn 0.9995 -0.0314 0.0000
vn 0.9963 -0.0862 0.0000
vn 0.8656 -0.0314 0.4998
vn 0.8628 -0.0862 0.4981
vn 0.4849 0.2442 0.8398
vn -0.0000 0.2442 0.9697
vn -0.4849 0.2442 0.8398
vn -0.8398 0.2442 0.4849
vn -0.9697 0.2442 -0.0000
vn -0.8398 0.2442 -0.4849
vn -0.4849 0.2442 -0.8398
vn 0.0000 0.2442 -0.9697
vn 0.4849 0.2442 -0.8398
vn 0.8398 0.2442 -0.4849
vn 0.9697 0.2442 0.0000
vn 0.8398 0.2442 0.4849
vn 0.3908 0.6238 0.6769
vn -0.0000 0.6238 0.7816
vn -0.3907 0.6238 0.6769
vn -0.6769 0.6238 0.3908
vn -0.7816 0.6238 -0.0000
vn -0.6769 0.6238 -0.3907
vn -0.3908 0.6238 -0.6769
vn 0.0000 0.6238 -0.7816
vn 0.3907 0.6238 -0.6769
vn 0.6769 0.6238 -0.3908
vn 0.7816 0.6238 0.0000
vn 0.6769 0.6238 0.3908
vn 0.4518 0.8531 0.2609
vn 0.2609 0.8531 0.4518
vn 0.3269 0.9260 0.1888
vn 0.1888 0.9260 0.3269
vn -0.0000 0.8531 0.5217
vn -0.2609 0.8531 0.4518
vn -0.4518 0.8531 0.2609
vn -0.5217 0.8531 -0.0000
vn -0.4518 0.8531 -0.2609
vn -0.2609 0.8531 -0.4518
vn 0.0000 0.8531 -0.5217
vn 0.2609 0.8531 -0.4518
vn 0.4518 0.8531 -0.2609
vn 0.5217 0.8531 0.0000
vn 0.3775 0.9260 0.0000
vn 0.3269 0.9260 -0.1888
vn 0.1888 0.9260 -0.3269
vn 0.0000 0.9260 -0.3775
vn -0.1888 0.9260 -0.3269
vn -0.3269 0.9260 -0.1888
vn -0.3775 0.9260 -0.0000
vn -0.3269 0.9260 0.1888
vn -0.1888 0.9260 0.3269
vn 0.0000 0.9260 0.3775
vn -0.7060 -0.0558 -0.7060
vn -0.7060 -0.0558 0.7060
vn 0.7060 -0.0558 0.7060
vn 0.7060 -0.0558 -0.7060
vn 0.4981 -0.0885 0.8626
vn 0.4980 -0.0885 0.8627
vn 0.0000 -0.0885 0.9961
vn -0.4980 -0.0885 0.8627
vn -0.4981 -0.0885 0.8626
vn -0.8627 -0.0885 0.4980
vn -0.8626 -0.0885 0.4981
vn -0.9961 -0.0885 0.0000
vn -0.8627 -0.0885 -0.4980
vn -0.8626 -0.0885 -0.4981
vn -0.4980 -0.0885 -0.8627
vn -0.4981 -0.0885 -0.8626
vn -0.0000 -0.0885 -0.9961
vn 0.4980 -0.0885 -0.8627
vn 0.4981 -0.0885 -0.8626
vn 0.8627 -0.0885 -0.4980
vn 0.8626 -0.0885 -0.4981
vn 0.9961 -0.0885 -0.0000
vn 0.8627 -0.0885 0.4980
vn 0.8626 -0.0885 0.4981
vn -0.0000 0.1567 0.9877
vn -0.0072 0.1626 0.9867
vn -0.0063 0.1618 0.9868
vn -0.0143 0.1683 0.9856
vn -0.0000 0.0924 0.9957
vn -0.0325 0.1193 0.9923
vn -0.0406 0.1259 0.9912
vn -0.0916 0.1676 0.9816
vn -1.0000 -0.0000 -0.0000
vn 0.0000 0.1567 -0.9877
vn 0.0072 0.1626 -0.9867
vn 0.0063 0.1618 -0.9868
vn 0.0143 0.1683 -0.9856
vn 0.0000 0.0924 -0.9957
vn 0.0325 0.1193 -0.9923
vn 0.0406 0.1259 -0.9912
vn 0.0916 0.1676 -0.9816
vn 1.0000 0.0000 -0.0000
vn 0.0000 1.0000 0.0000
# 144 vertex normals

vt 0.8481 0.2585 0.0000
vt 0.8352 0.1431 0.0000
vt 0.9763 0.2502 0.0000
vt 0.9763 0.1431 0.0000
vt 0.2827 0.1563 0.0000
vt 0.3726 0.0125 0.0000
vt 0.4678 0.1570 0.0000
vt 0.5166 0.0789 0.0000
vt 0.6572 0.1570 0.0000
vt 0.6572 0.1309 0.0000
vt 0.7073 0.1309 0.0000
vt 0.7073 0.1570 0.0000
vt 0.7576 0.1309 0.0000
vt 0.7576 0.1570 0.0000
vt 0.8079 0.1309 0.0000
vt 0.8079 0.1570 0.0000
vt 0.6069 0.1309 0.0000
vt 0.6069 0.1570 0.0000
vt 0.5566 0.1309 0.0000
vt 0.5566 0.1570 0.0000
vt 0.5063 0.1309 0.0000
vt 0.5063 0.1570 0.0000
vt 0.6621 0.2800 0.0000
vt 0.6621 0.5059 0.0000
vt 0.5007 0.5059 0.0000
vt 0.5007 0.2800 0.0000
vt 0.3394 0.5059 0.0000
vt 0.3394 0.2800 0.0000
vt 0.1782 0.5059 0.0000
vt 0.1782 0.2800 0.0000
vt 0.0168 0.5059 0.0000
vt 0.0168 0.2800 0.0000
vt 0.8232 0.5059 0.0000
vt 0.8232 0.2800 0.0000
vt 0.9846 0.5059 0.0000
vt 0.9846 0.2800 0.0000
vt 0.6621 0.6687 0.0000
vt 0.5007 0.6687 0.0000
vt 0.3394 0.6687 0.0000
vt 0.1782 0.6687 0.0000
vt 0.0168 0.6687 0.0000
vt 0.8232 0.6687 0.0000
vt 0.9846 0.6687 0.0000
vt 0.6621 0.7622 0.0000
vt 0.5007 0.7622 0.0000
vt 0.3394 0.7622 0.0000
vt 0.1782 0.7622 0.0000
vt 0.0168 0.7622 0.0000
vt 0.8232 0.7622 0.0000
vt 0.9846 0.7622 0.0000
vt 0.8232 0.8865 0.0000
vt 0.6621 0.8865 0.0000
vt 0.8232 0.9883 0.0000
vt 0.6621 0.9883 0.0000
vt 0.5007 0.8865 0.0000
vt 0.3394 0.8865 0.0000
vt 0.1782 0.8865 0.0000
vt 0.0168 0.8865 0.0000
vt 0.9846 0.8865 0.0000
vt 0.9846 0.9883 0.0000
vt 0.5007 0.9883 0.0000
vt 0.3394 0.9883 0.0000
vt 0.1782 0.9883 0.0000
vt 0.0168 0.9883 0.0000
vt 0.2893 0.0459 0.0000
vt 0.2893 0.0933 0.0000
vt 0.2766 0.0933 0.0000
vt 0.2795 0.0459 0.0000
vt 0.3018 0.0933 0.0000
vt 0.2988 0.0459 0.0000
vt 0.5508 0.1753 0.0000
vt 0.5508 0.2576 0.0000
vt 0.4160 0.2576 0.0000
vt 0.4160 0.1753 0.0000
vt 0.2813 0.2576 0.0000
vt 0.2813 0.1753 0.0000
vt 0.1465 0.2576 0.0000
vt 0.1465 0.1753 0.0000
vt 0.0117 0.2576 0.0000
vt 0.0117 0.1753 0.0000
vt 0.6855 0.2576 0.0000
vt 0.6855 0.1753 0.0000
vt 0.8203 0.2576 0.0000
vt 0.8203 0.1753 0.0000
vt 0.1394 0.0452 0.0000
vt 0.2034 0.0598 0.0000
vt 0.0754 0.0598 0.0000
vt 0.2500 0.1003 0.0000
vt 0.0288 0.1003 0.0000
vt 0.2671 0.1555 0.0000
vt 0.0117 0.1555 0.0000
# 91 texture coords

g Object01
usemtl Material__19
s 1
f 1/1/1 2/2/2 3/3/3 
f 3/3/3 2/2/2 4/4/4 
f 5/5/5 6/6/6 7/7/7 
f 7/7/7 6/6/6 8/8/4 
f 9/1/8 10/2/9 11/3/10 
f 11/3/10 10/2/9 12/4/11 
f 13/5/12 14/6/13 15/7/14 
f 15/7/14 14/6/13 16/8/11 
f 17/9/15 18/10/16 19/11/17 
f 17/9/15 19/11/17 20/12/17 
f 20/12/17 19/11/17 21/13/18 
f 20/12/17 21/13/18 22/14/18 
f 22/14/18 21/13/18 23/15/19 
f 22/14/18 23/15/19 24/16/19 
f 24/16/19 23/15/19 25/13/20 
f 24/16/19 25/13/20 26/14/20 
f 26/14/20 25/13/20 27/11/21 
f 26/14/20 27/11/21 28/12/21 
f 28/12/21 27/11/21 29/10/22 
f 28/12/21 29/10/22 30/9/23 
f 30/9/23 29/10/22 31/17/24 
f 30/9/23 31/17/24 32/18/24 
f 32/18/24 31/17/24 33/19/25 
f 32/18/24 33/19/25 34/20/25 
f 34/20/25 33/19/25 35/21/26 
f 34/20/25 35/21/26 36/22/27 
f 36/22/27 35/21/26 37/19/28 
f 36/22/27 37/19/28 38/20/28 
f 38/20/28 37/19/28 39/17/29 
f 38/20/28 39/17/29 40/18/29 
f 40/18/29 39/17/29 18/10/16 
f 40/18/29 18/10/16 17/9/15 
s 2
f 41/23/30 42/24/31 43/25/32 
f 41/23/30 43/25/32 44/26/33 
f 44/26/33 43/25/32 45/27/34 
f 44/26/33 45/27/34 46/28/35 
f 46/28/35 45/27/34 47/29/36 
f 46/28/35 47/29/36 48/30/37 
f 48/30/37 47/29/36 49/31/38 
f 48/30/37 49/31/38 50/32/39 
f 50/32/39 49/31/38 51/29/40 
f 50/32/39 51/29/40 52/30/41 
f 52/30/41 51/29/40 53/27/42 
f 52/30/41 53/27/42 54/28/43 
f 54/28/43 53/27/42 55/25/44 
f 54/28/43 55/25/44 56/26/45 
f 56/26/45 55/25/44 57/24/46 
f 56/26/45 57/24/46 58/23/47 
f 58/23/47 57/24/46 59/33/48 
f 58/23/47 59/33/48 60/34/49 
f 60/34/49 59/33/48 61/35/50 
f 60/34/49 61/35/50 62/36/51 
f 62/36/51 61/35/50 63/33/52 
f 62/36/51 63/33/52 64/34/53 
f 64/34/53 63/33/52 41/23/30 
f 41/23/30 63/33/52 42/24/31 
f 42/24/31 63/33/52 65/37/54 
f 42/24/31 65/37/54 43/25/32 
f 43/25/32 65/37/54 66/38/55 
f 43/25/32 66/38/55 45/27/34 
f 45/27/34 66/38/55 67/39/56 
f 45/27/34 67/39/56 47/29/36 
f 47/29/36 67/39/56 68/40/57 
f 47/29/36 68/40/57 49/31/38 
f 49/31/38 68/40/57 69/41/58 
f 49/31/38 69/41/58 51/29/40 
f 51/29/40 69/41/58 70/40/59 
f 51/29/40 70/40/59 53/27/42 
f 53/27/42 70/40/59 71/39/60 
f 53/27/42 71/39/60 55/25/44 
f 55/25/44 71/39/60 72/38/61 
f 55/25/44 72/38/61 57/24/46 
f 57/24/46 72/38/61 73/37/62 
f 57/24/46 73/37/62 59/33/48 
f 59/33/48 73/37/62 74/42/63 
f 59/33/48 74/42/63 61/35/50 
f 61/35/50 74/42/63 75/43/64 
f 61/35/50 75/43/64 63/33/52 
f 63/33/52 75/43/64 76/42/65 
f 63/33/52 76/42/65 65/37/54 
f 65/37/54 76/42/65 77/44/66 
f 65/37/54 77/44/66 66/38/55 
f 66/38/55 77/44/66 78/45/67 
f 66/38/55 78/45/67 67/39/56 
f 67/39/56 78/45/67 79/46/68 
f 67/39/56 79/46/68 68/40/57 
f 68/40/57 79/46/68 80/47/69 
f 68/40/57 80/47/69 69/41/58 
f 69/41/58 80/47/69 81/48/70 
f 69/41/58 81/48/70 70/40/59 
f 70/40/59 81/48/70 82/47/71 
f 70/40/59 82/47/71 71/39/60 
f 71/39/60 82/47/71 83/46/72 
f 71/39/60 83/46/72 72/38/61 
f 72/38/61 83/46/72 84/45/73 
f 72/38/61 84/45/73 73/37/62 
f 73/37/62 84/45/73 85/44/74 
f 73/37/62 85/44/74 74/42/63 
f 74/42/63 85/44/74 86/49/75 
f 74/42/63 86/49/75 75/43/64 
f 75/43/64 86/49/75 87/50/76 
f 75/43/64 87/50/76 76/42/65 
f 76/42/65 87/50/76 88/49/77 
f 76/42/65 88/49/77 77/44/66 
f 77/44/66 88/49/77 89/51/78 
f 77/44/66 89/51/78 90/52/79 
f 90/52/79 89/51/78 21/53/80 
f 90/52/79 21/53/80 19/54/81 
f 90/52/79 19/54/81 91/55/82 
f 90/52/79 91/55/82 77/44/66 
f 77/44/66 91/55/82 78/45/67 
f 78/45/67 91/55/82 92/56/83 
f 78/45/67 92/56/83 79/46/68 
f 79/46/68 92/56/83 93/57/84 
f 79/46/68 93/57/84 80/47/69 
f 80/47/69 93/57/84 94/58/85 
f 80/47/69 94/58/85 81/48/70 
f 81/48/70 94/58/85 95/57/86 
f 81/48/70 95/57/86 82/47/71 
f 82/47/71 95/57/86 96/56/87 
f 82/47/71 96/56/87 83/46/72 
f 83/46/72 96/56/87 97/55/88 
f 83/46/72 97/55/88 84/45/73 
f 84/45/73 97/55/88 98/52/89 
f 84/45/73 98/52/89 85/44/74 
f 85/44/74 98/52/89 99/51/90 
f 85/44/74 99/51/90 86/49/75 
f 86/49/75 99/51/90 100/59/91 
f 86/49/75 100/59/91 87/50/76 
f 87/50/76 100/59/91 88/49/77 
f 88/49/77 100/59/91 89/51/78 
f 89/51/78 100/59/91 21/53/80 
f 21/53/80 100/59/91 23/60/92 
f 23/60/92 100/59/91 99/51/90 
f 23/60/92 99/51/90 25/53/93 
f 25/53/93 99/51/90 98/52/89 
f 25/53/93 98/52/89 27/54/94 
f 27/54/94 98/52/89 97/55/88 
f 27/54/94 97/55/88 29/61/95 
f 29/61/95 97/55/88 96/56/87 
f 29/61/95 96/56/87 31/62/96 
f 31/62/96 96/56/87 95/57/86 
f 31/62/96 95/57/86 33/63/97 
f 33/63/97 95/57/86 94/58/85 
f 33/63/97 94/58/85 35/64/98 
f 35/64/98 94/58/85 93/57/84 
f 35/64/98 93/57/84 37/63/99 
f 37/63/99 93/57/84 92/56/83 
f 37/63/99 92/56/83 39/62/100 
f 39/62/100 92/56/83 91/55/82 
f 39/62/100 91/55/82 18/61/101 
f 18/61/101 91/55/82 19/54/81 
s 1
f 101/65/102 102/66/102 103/67/102 
f 101/65/102 103/67/102 104/68/102 
s 2
f 104/68/103 103/67/103 105/66/103 
f 104/68/103 105/66/103 106/65/103 
s 1
f 106/65/104 105/66/104 107/69/104 
f 106/65/104 107/69/104 108/70/104 
s 2
f 108/70/105 107/69/105 102/66/105 
f 108/70/105 102/66/105 101/65/105 
s 1
f 109/71/106 110/72/107 111/73/108 
f 109/71/106 111/73/108 112/74/108 
f 112/74/108 111/73/108 113/75/109 
f 112/74/108 113/75/109 114/76/110 
f 114/76/110 113/75/109 115/77/111 
f 114/76/110 115/77/111 116/78/112 
f 116/78/112 115/77/111 117/79/113 
f 116/78/112 117/79/113 118/80/113 
f 118/80/113 117/79/113 119/77/114 
f 118/80/113 119/77/114 120/78/115 
f 120/78/115 119/77/114 121/75/116 
f 120/78/115 121/75/116 122/76/117 
f 122/76/117 121/75/116 123/73/118 
f 122/76/117 123/73/118 124/74/118 
f 124/74/118 123/73/118 125/72/119 
f 124/74/118 125/72/119 126/71/120 
f 126/71/120 125/72/119 127/81/121 
f 126/71/120 127/81/121 128/82/122 
f 128/82/122 127/81/121 129/83/123 
f 128/82/122 129/83/123 130/84/123 
f 130/84/123 129/83/123 131/81/124 
f 130/84/123 131/81/124 132/82/125 
f 132/82/125 131/81/124 110/72/107 
f 132/82/125 110/72/107 109/71/106 
s 2
f 133/4/26 3/3/26 4/4/26 
s 4
f 134/2/126 1/1/127 133/4/128 
f 133/4/128 1/1/127 3/3/129 
s 2
f 135/6/130 5/5/131 136/8/132 
f 136/8/132 5/5/131 7/7/133 
s 4
f 136/8/134 7/7/134 8/8/134 
s 2
f 137/2/135 9/1/136 138/4/137 
f 138/4/137 9/1/136 11/3/138 
s 4
f 138/4/19 11/3/19 12/4/19 
s 2
f 139/6/139 13/5/140 140/8/141 
f 140/8/141 13/5/140 15/7/142 
s 4
f 140/8/143 15/7/143 16/8/143 
f 106/67/144 108/66/144 104/66/144 
f 104/66/144 108/66/144 101/69/144 
s 2
f 36/85/144 38/86/144 34/87/144 
f 34/87/144 38/86/144 40/88/144 
f 34/87/144 40/88/144 32/89/144 
f 32/89/144 40/88/144 17/90/144 
f 32/89/144 17/90/144 30/91/144 
f 30/91/144 17/90/144 20/88/144 
f 30/91/144 20/88/144 28/89/144 
f 28/89/144 20/88/144 22/86/144 
f 28/89/144 22/86/144 26/87/144 
f 26/87/144 22/86/144 24/85/144 
# 0 polygons - 208 triangles

