# 3ds Max Wavefront OBJ Exporter v0.97b - (c)2007 guruware
# File Created: 26.09.2013 02:34:52

mtllib RYNOAmmo.mtl

#
# object default
#

v  -7.0723 20.4316 -0.0000
v  -5.6689 20.4316 2.4316
v  -5.6689 22.6445 -0.0000
v  -4.9668 22.6445 -1.2158
v  -4.2646 24.0000 -0.0000
v  -3.5625 22.6445 -1.2158
v  -2.8604 22.6445 -0.0000
v  -2.8604 20.4316 -2.4316
v  -1.4561 20.4316 -0.0000
v  -3.5625 22.6445 1.2158
v  -4.9668 22.6445 1.2158
v  -2.8604 20.4316 2.4316
v  1.4561 20.4316 0.0000
v  2.8604 20.4316 2.4316
v  2.8604 22.6445 0.0000
v  3.5625 22.6445 -1.2158
v  4.2646 24.0000 0.0000
v  4.9668 22.6445 -1.2158
v  5.6689 22.6445 0.0000
v  5.6689 20.4316 -2.4316
v  7.0723 20.4316 0.0000
v  4.9668 22.6445 1.2158
v  3.5625 22.6445 1.2158
v  5.6689 20.4316 2.4316
v  2.8604 20.4316 -2.4316
v  0.0000 20.4316 -7.0742
v  -2.4316 20.4316 -5.6699
v  0.0000 22.6445 -5.6699
v  1.2158 22.6445 -4.9678
v  0.0000 24.0000 -4.2646
v  1.2158 22.6445 -3.5625
v  0.0000 22.6445 -2.8604
v  2.4316 20.4316 -2.8604
v  0.0000 20.4316 -1.4561
v  -1.2158 22.6445 -3.5625
v  -1.2158 22.6445 -4.9678
v  -2.4316 20.4316 -2.8604
v  2.4316 20.4316 -5.6699
v  0.0000 20.4316 1.4561
v  -2.4316 20.4316 2.8604
v  0.0000 22.6445 2.8604
v  1.2158 22.6445 3.5625
v  0.0000 24.0000 4.2646
v  1.2158 22.6445 4.9678
v  0.0000 22.6445 5.6699
v  2.4316 20.4316 5.6699
v  0.0000 20.4316 7.0742
v  -1.2158 22.6445 4.9678
v  -1.2158 22.6445 3.5625
v  -2.4316 20.4316 5.6699
v  2.4316 20.4316 2.8604
v  -5.6689 20.4316 -2.4316
v  -7.1250 18.3486 7.1250
v  7.1250 18.3486 7.1250
v  -7.1250 18.3486 -7.1250
v  7.1250 18.3486 -7.1250
v  7.6143 -0.0000 10.2832
v  10.2832 -0.0000 7.6143
v  10.2832 2.8027 7.6143
v  7.6143 2.8027 10.2832
v  8.9473 3.4424 6.6250
v  6.6250 3.4424 8.9473
v  7.6143 -0.0000 -10.2832
v  -7.6143 0.0000 -10.2832
v  -7.6143 2.8027 -10.2832
v  7.6143 2.8027 -10.2832
v  -6.6250 3.4424 -8.9473
v  6.6250 3.4424 -8.9473
v  -1.4561 18.0410 -0.0000
v  -2.8604 18.0410 -2.4316
v  -5.6689 18.0410 -2.4316
v  -7.0723 18.0410 -0.0000
v  -5.6689 18.0410 2.4316
v  -2.8604 18.0410 2.4316
v  7.0723 18.0410 0.0000
v  5.6689 18.0410 -2.4316
v  2.8604 18.0410 -2.4316
v  1.4561 18.0410 0.0000
v  2.8604 18.0410 2.4316
v  5.6689 18.0410 2.4316
v  0.0000 18.0410 -1.4561
v  2.4316 18.0410 -2.8604
v  2.4316 18.0410 -5.6699
v  0.0000 18.0410 -7.0742
v  -2.4316 18.0410 -5.6699
v  -2.4316 18.0410 -2.8604
v  0.0000 18.0410 7.0742
v  2.4316 18.0410 5.6699
v  2.4316 18.0410 2.8604
v  0.0000 18.0410 1.4561
v  -2.4316 18.0410 2.8604
v  -2.4316 18.0410 5.6699
v  10.2832 -0.0000 -7.6143
v  10.2832 2.8027 -7.6143
v  8.9473 3.4424 -6.6250
v  -10.2832 0.0000 7.6143
v  -7.6143 0.0000 10.2832
v  -7.6143 2.8027 10.2832
v  -10.2832 2.8027 7.6143
v  -8.9473 3.4424 6.6250
v  -6.6250 3.4424 8.9473
v  -10.2832 0.0000 -7.6143
v  -10.2832 2.8027 -7.6143
v  -8.9473 3.4424 -6.6250
# 104 vertices

vn -0.9662 0.2576 -0.0000
vn -0.4832 0.2577 0.8367
vn -0.7894 0.6138 -0.0001
vn -0.3947 0.6138 -0.6837
vn 0.0000 1.0000 -0.0000
vn 0.3946 0.6139 -0.6837
vn 0.7893 0.6139 0.0000
vn 0.4831 0.2577 -0.8368
vn 0.9662 0.2577 0.0000
vn 0.3946 0.6139 0.6837
vn -0.3946 0.6139 0.6837
vn 0.4831 0.2577 0.8368
vn -0.9662 0.2577 -0.0000
vn -0.4831 0.2577 0.8368
vn -0.7893 0.6139 -0.0000
vn -0.3946 0.6139 -0.6837
vn -0.0000 1.0000 0.0000
vn 0.7894 0.6138 0.0001
vn 0.4832 0.2577 -0.8367
vn 0.9662 0.2576 0.0000
vn 0.3947 0.6138 0.6837
vn 0.4832 0.2577 0.8367
vn -0.4831 0.2577 -0.8368
vn 0.0000 0.2577 -0.9662
vn -0.8368 0.2577 -0.4831
vn 0.0000 0.6141 -0.7893
vn 0.6836 0.6139 -0.3947
vn 0.0000 1.0000 0.0002
vn 0.6837 0.6139 0.3946
vn 0.0000 0.6139 0.7893
vn 0.8368 0.2577 0.4831
vn -0.0000 0.2577 0.9662
vn -0.6837 0.6139 0.3946
vn -0.6836 0.6139 -0.3947
vn -0.8368 0.2577 0.4831
vn 0.8368 0.2577 -0.4831
vn 0.0000 0.6139 -0.7893
vn 0.6837 0.6139 -0.3946
vn 0.0000 1.0000 -0.0002
vn 0.6836 0.6139 0.3947
vn -0.0000 0.6141 0.7893
vn -0.6836 0.6139 0.3947
vn -0.6837 0.6139 -0.3946
vn -0.4832 0.2577 -0.8367
vn 0.0000 1.0000 0.0000
vn 0.3827 -0.0000 0.9239
vn 0.9239 -0.0000 0.3827
vn 0.7930 0.5071 0.3375
vn 0.3375 0.5071 0.7930
vn 0.3587 0.9264 0.1146
vn 0.1146 0.9264 0.3587
vn 0.3827 -0.0000 -0.9239
vn -0.3827 0.0000 -0.9239
vn -0.3375 0.5071 -0.7930
vn 0.3375 0.5071 -0.7930
vn -0.1146 0.9264 -0.3587
vn 0.1146 0.9264 -0.3587
vn 1.0000 -0.0000 0.0000
vn 0.4999 -0.0000 -0.8661
vn -0.5001 0.0000 -0.8660
vn -1.0000 0.0000 -0.0000
vn -0.5001 0.0000 0.8660
vn 0.4999 -0.0000 0.8661
vn 0.5001 -0.0000 -0.8660
vn -0.4999 0.0000 -0.8661
vn -0.4999 0.0000 0.8661
vn 0.5001 -0.0000 0.8660
vn -0.0000 0.0000 1.0000
vn 0.8661 -0.0000 0.4999
vn 0.8661 -0.0000 -0.4999
vn 0.0000 -0.0000 -1.0000
vn -0.8661 0.0000 -0.4999
vn -0.8661 0.0000 0.4999
vn 0.0000 0.0000 -1.0000
vn 0.9239 -0.0000 -0.3827
vn 0.7930 0.5071 -0.3375
vn 0.3587 0.9264 -0.1146
vn -0.9239 0.0000 0.3827
vn -0.3827 0.0000 0.9239
vn -0.3375 0.5071 0.7930
vn -0.7930 0.5071 0.3375
vn -0.3587 0.9264 0.1146
vn -0.1146 0.9264 0.3587
vn -0.9239 0.0000 -0.3827
vn -0.7930 0.5071 -0.3375
vn -0.3587 0.9264 -0.1146
# 86 vertex normals

vt 0.9658 0.3721 0.0000
vt 0.7351 0.3721 0.0000
vt 0.9016 0.5601 0.0000
vt 0.7942 0.5604 0.0000
vt 0.8474 0.7086 0.0000
vt 0.9014 0.5601 0.0000
vt 0.7944 0.5604 0.0000
vt 0.9016 0.5604 0.0000
vt 0.7942 0.5601 0.0000
vt 0.8477 0.7086 0.0000
vt 0.9014 0.5604 0.0000
vt 0.7944 0.5601 0.0000
vt 0.8472 0.7086 0.0000
vt 0.0342 0.0403 0.0000
vt 0.6738 0.0403 0.0000
vt 0.0342 0.6922 0.0000
vt 0.6738 0.6922 0.0000
vt 0.2729 0.7474 0.0000
vt 0.0432 0.7474 0.0000
vt 0.0432 0.8890 0.0000
vt 0.2729 0.8890 0.0000
vt 0.0432 0.9774 0.0000
vt 0.2729 0.9774 0.0000
vt 0.9688 0.7471 0.0000
vt 0.2729 0.7476 0.0000
vt 0.9688 0.8890 0.0000
vt 0.9690 0.9774 0.0000
vt 0.7285 0.3187 0.0000
vt 0.7288 0.0479 0.0000
vt 0.9590 0.0479 0.0000
vt 0.9590 0.3187 0.0000
vt 0.7285 0.0479 0.0000
vt 0.7288 0.0460 0.0000
vt 0.9590 0.0460 0.0000
vt 0.7285 0.0460 0.0000
vt 0.0435 0.7474 0.0000
vt 0.0435 0.8890 0.0000
vt 0.0435 0.9774 0.0000
vt 0.9690 0.8890 0.0000
vt 0.9690 0.7474 0.0000
# 40 texture coords

g default
usemtl Material__17
s 1
f 1/1/1 2/2/2 3/3/3 
f 1/1/1 3/3/3 4/4/4 
f 4/4/4 3/3/3 5/5/5 
f 4/4/4 5/5/5 6/6/6 
f 6/6/6 5/5/5 7/7/7 
f 6/6/6 7/7/7 8/1/8 
f 8/1/8 7/7/7 9/2/9 
f 9/2/9 7/7/7 10/6/10 
f 10/6/10 7/7/7 5/5/5 
f 10/6/10 5/5/5 11/4/11 
f 11/4/11 5/5/5 3/3/3 
f 11/4/11 3/3/3 2/2/2 
f 11/4/11 2/2/2 10/6/10 
f 10/6/10 2/2/2 12/1/12 
f 10/6/10 12/1/12 9/2/9 
f 13/1/13 14/2/14 15/3/15 
f 13/1/13 15/3/15 16/4/16 
f 16/4/16 15/3/15 17/5/17 
f 16/4/16 17/5/17 18/6/6 
f 18/6/6 17/5/17 19/7/18 
f 18/6/6 19/7/18 20/1/19 
f 20/1/19 19/7/18 21/2/20 
f 21/2/20 19/7/18 22/6/21 
f 22/6/21 19/7/18 17/5/17 
f 22/6/21 17/5/17 23/4/11 
f 23/4/11 17/5/17 15/3/15 
f 23/4/11 15/3/15 14/2/14 
f 23/4/11 14/2/14 22/6/21 
f 22/6/21 14/2/14 24/1/22 
f 22/6/21 24/1/22 21/2/20 
f 25/2/23 13/1/13 16/4/16 
f 25/2/23 16/4/16 20/1/19 
f 20/1/19 16/4/16 18/6/6 
f 26/1/24 27/2/25 28/8/26 
f 26/1/24 28/8/26 29/9/27 
f 29/9/27 28/8/26 30/10/28 
f 29/9/27 30/10/28 31/11/29 
f 31/11/29 30/10/28 32/12/30 
f 31/11/29 32/12/30 33/1/31 
f 33/1/31 32/12/30 34/2/32 
f 34/2/32 32/12/30 35/11/33 
f 35/11/33 32/12/30 30/10/28 
f 35/11/33 30/10/28 36/9/34 
f 36/9/34 30/10/28 28/8/26 
f 36/9/34 28/8/26 27/2/25 
f 36/9/34 27/2/25 35/11/33 
f 35/11/33 27/2/25 37/1/35 
f 35/11/33 37/1/35 34/2/32 
f 38/2/36 26/1/24 29/9/27 
f 38/2/36 29/9/27 33/1/31 
f 33/1/31 29/9/27 31/11/29 
f 39/1/24 40/2/25 41/8/37 
f 39/1/24 41/8/37 42/9/38 
f 42/9/38 41/8/37 43/13/39 
f 42/9/38 43/13/39 44/11/40 
f 44/11/40 43/13/39 45/12/41 
f 44/11/40 45/12/41 46/1/31 
f 46/1/31 45/12/41 47/2/32 
f 47/2/32 45/12/41 48/11/42 
f 48/11/42 45/12/41 43/13/39 
f 48/11/42 43/13/39 49/9/43 
f 49/9/43 43/13/39 41/8/37 
f 49/9/43 41/8/37 40/2/25 
f 49/9/43 40/2/25 48/11/42 
f 48/11/42 40/2/25 50/1/35 
f 48/11/42 50/1/35 47/2/32 
f 51/2/36 39/1/24 42/9/38 
f 51/2/36 42/9/38 46/1/31 
f 46/1/31 42/9/38 44/11/40 
f 52/2/44 1/1/1 4/4/4 
f 52/2/44 4/4/4 8/1/8 
f 8/1/8 4/4/4 6/6/6 
f 53/14/45 54/15/45 55/16/45 
f 55/16/45 54/15/45 56/17/45 
f 57/18/46 58/19/47 59/20/48 
f 57/18/46 59/20/48 60/21/49 
f 60/21/49 59/20/48 61/22/50 
f 60/21/49 61/22/50 62/23/51 
f 63/24/52 64/25/53 65/21/54 
f 63/24/52 65/21/54 66/26/55 
f 66/26/55 65/21/54 67/23/56 
f 66/26/55 67/23/56 68/27/57 
f 9/28/9 69/29/58 70/30/59 
f 9/28/9 70/30/59 8/31/8 
f 8/31/8 70/30/59 71/32/60 
f 8/31/8 71/32/60 52/28/44 
f 52/28/44 71/32/60 72/30/61 
f 52/28/44 72/30/61 1/31/1 
f 1/31/1 72/30/61 73/32/62 
f 1/31/1 73/32/62 2/28/2 
f 2/28/2 73/32/62 74/30/63 
f 2/28/2 74/30/63 12/31/12 
f 12/31/12 74/30/63 69/29/58 
f 12/31/12 69/29/58 9/28/9 
f 21/28/20 75/29/58 76/30/64 
f 21/28/20 76/30/64 20/31/19 
f 20/31/19 76/30/64 77/32/65 
f 20/31/19 77/32/65 25/28/23 
f 25/28/23 77/32/65 78/30/61 
f 25/28/23 78/30/61 13/31/13 
f 13/31/13 78/30/61 79/32/66 
f 13/31/13 79/32/66 14/28/14 
f 14/28/14 79/32/66 80/30/67 
f 14/28/14 80/30/67 24/31/22 
f 24/31/22 80/30/67 75/29/58 
f 24/31/22 75/29/58 21/28/20 
f 34/28/32 81/33/68 82/34/69 
f 34/28/32 82/34/69 33/31/31 
f 33/31/31 82/34/69 83/35/70 
f 33/31/31 83/35/70 38/28/36 
f 38/28/36 83/35/70 84/34/71 
f 38/28/36 84/34/71 26/31/24 
f 26/31/24 84/34/71 85/35/72 
f 26/31/24 85/35/72 27/28/25 
f 27/28/25 85/35/72 86/34/73 
f 27/28/25 86/34/73 37/31/35 
f 37/31/35 86/34/73 81/33/68 
f 37/31/35 81/33/68 34/28/32 
f 47/28/32 87/33/68 88/34/69 
f 47/28/32 88/34/69 46/31/31 
f 46/31/31 88/34/69 89/35/70 
f 46/31/31 89/35/70 51/28/36 
f 51/28/36 89/35/70 90/34/74 
f 51/28/36 90/34/74 39/31/24 
f 39/31/24 90/34/74 91/35/72 
f 39/31/24 91/35/72 40/28/25 
f 40/28/25 91/35/72 92/34/73 
f 40/28/25 92/34/73 50/31/35 
f 50/31/35 92/34/73 87/33/68 
f 50/31/35 87/33/68 47/28/32 
f 93/18/75 63/36/52 66/37/55 
f 93/18/75 66/37/55 94/21/76 
f 94/21/76 66/37/55 68/38/57 
f 94/21/76 68/38/57 95/23/77 
f 94/21/76 95/23/77 59/39/48 
f 94/21/76 59/39/48 93/18/75 
f 93/18/75 59/39/48 58/40/47 
f 95/23/77 61/27/50 59/39/48 
f 96/19/78 97/18/79 98/21/80 
f 96/19/78 98/21/80 99/20/81 
f 99/20/81 98/21/80 100/22/82 
f 100/22/82 98/21/80 101/23/83 
f 101/23/83 98/21/80 60/39/49 
f 60/39/49 98/21/80 97/18/79 
f 60/39/49 97/18/79 57/40/46 
f 62/27/51 101/23/83 60/39/49 
f 64/36/53 102/18/84 103/21/85 
f 64/36/53 103/21/85 65/37/54 
f 65/37/54 103/21/85 67/38/56 
f 67/38/56 103/21/85 104/23/86 
f 104/23/86 103/21/85 99/39/81 
f 99/39/81 103/21/85 102/18/84 
f 99/39/81 102/18/84 96/40/78 
f 100/27/82 104/23/86 99/39/81 
# 0 polygons - 154 triangles

#
# object Mesh01
#

v  7.7148 19.3203 -7.7148
v  9.3223 17.9238 -6.9033
v  6.9033 17.9238 -9.3223
v  8.9473 3.4424 -6.6250
v  6.6250 3.4424 -8.9473
v  -6.9033 17.9238 -9.3223
v  -6.6250 3.4424 -8.9473
v  -8.9473 3.4424 -6.6250
v  -9.3223 17.9238 -6.9033
v  -7.7148 19.3203 -7.7148
v  -7.7148 19.3203 7.7148
v  -7.1250 18.3486 -7.1250
v  -7.1250 18.3486 7.1250
v  7.1250 18.3486 -7.1250
v  7.7148 19.3203 7.7148
v  7.1250 18.3486 7.1250
v  9.3223 17.9238 6.9033
v  8.9473 3.4424 6.6250
v  6.9033 17.9238 9.3223
v  6.6250 3.4424 8.9473
v  -6.9033 17.9238 9.3223
v  -6.6250 3.4424 8.9473
v  -8.9473 3.4424 6.6250
v  -9.3223 17.9238 6.9033
# 24 vertices

vn 0.5225 0.6738 -0.5225
vn 0.8881 0.3311 -0.3189
vn 0.3189 0.3311 -0.8881
vn 0.9242 -0.0312 -0.3807
vn 0.3807 -0.0312 -0.9242
vn -0.3189 0.3311 -0.8881
vn -0.3807 -0.0312 -0.9242
vn -0.9242 -0.0312 -0.3807
vn -0.8881 0.3311 -0.3189
vn -0.5225 0.6738 -0.5225
vn 0.8548 0.5189 0.0000
vn -0.0000 0.5189 0.8548
vn -0.8548 0.5189 -0.0000
vn 0.0000 0.5189 -0.8548
vn 0.5225 0.6738 0.5225
vn 0.8881 0.3311 0.3189
vn 0.9242 -0.0312 0.3807
vn 0.3189 0.3311 0.8881
vn 0.3807 -0.0312 0.9242
vn -0.3189 0.3311 0.8881
vn -0.3807 -0.0312 0.9242
vn -0.9242 -0.0312 0.3807
vn -0.8881 0.3311 0.3189
vn -0.5225 0.6738 0.5225
# 24 vertex normals

vt -0.1807 0.9100 0.0000
vt -0.0293 0.7979 0.0000
vt -0.1699 0.7979 0.0000
vt -0.0293 0.0362 0.0000
vt -0.1699 0.0362 0.0000
vt -0.8284 0.7979 0.0000
vt -0.8279 0.0362 0.0000
vt -0.9685 0.0362 0.0000
vt -0.9685 0.7979 0.0000
vt -0.8159 0.9100 0.0000
vt -0.1809 0.9100 0.0000
vt -0.7900 0.9747 0.0000
vt -0.2063 0.9747 0.0000
# 13 texture coords

g Mesh01
usemtl Material__16
s 25
f 105/41/87 106/42/88 107/43/89 
s 8
f 107/43/89 106/42/88 108/44/90 
f 107/43/89 108/44/90 109/45/91 
s 9
f 107/43/89 109/45/91 110/46/92 
f 110/46/92 109/45/91 111/47/93 
s 8
f 110/46/92 111/47/93 112/48/94 
f 110/46/92 112/48/94 113/49/95 
s 9
f 110/46/92 113/49/95 114/50/96 
s 1
f 110/46/92 114/50/96 107/43/89 
s 17
f 107/43/89 114/50/96 105/41/87 
s 2
f 114/50/97 115/51/97 116/52/97 
f 116/52/97 115/51/97 117/53/97 
s 4
f 105/41/98 114/50/98 118/53/98 
f 118/53/98 114/50/98 116/52/98 
s 2
f 119/51/99 105/50/99 120/53/99 
f 120/53/99 105/50/99 118/52/99 
s 4
f 115/50/100 119/41/100 117/52/100 
f 117/52/100 119/41/100 120/53/100 
s 16
f 105/50/87 119/41/101 121/43/102 
f 105/50/87 121/43/102 106/46/88 
s 25
f 106/46/88 121/43/102 122/45/103 
f 106/46/88 122/45/103 108/47/90 
f 121/42/102 119/41/101 123/43/104 
s 8
f 121/42/102 123/43/104 122/44/103 
f 122/44/103 123/43/104 124/45/105 
s 9
f 124/45/105 123/43/104 125/46/106 
f 124/45/105 125/46/106 126/47/107 
s 8
f 126/47/107 125/46/106 127/48/108 
f 127/48/108 125/46/106 128/49/109 
s 9
f 128/49/109 125/46/106 115/50/110 
s 1
f 115/50/110 125/46/106 123/43/104 
s 17
f 115/50/110 123/43/104 119/41/101 
s 1
f 115/51/110 114/50/96 113/46/95 
f 115/51/110 113/46/95 128/43/109 
s 9
f 128/43/109 113/46/95 112/47/94 
f 128/43/109 112/47/94 127/45/108 
# 0 polygons - 36 triangles

